<?xml version="1.0" encoding="utf-8"?>
<!-- Generator: Adobe Illustrator 18.0.0, SVG Export Plug-In . SVG Version: 6.00 Build 0)  -->
<!DOCTYPE svg PUBLIC "-//W3C//DTD SVG 1.1//EN" "http://www.w3.org/Graphics/SVG/1.1/DTD/svg11.dtd">
<svg version="1.1" id="Layer_1" xmlns="http://www.w3.org/2000/svg" xmlns:xlink="http://www.w3.org/1999/xlink" x="0px" y="0px"
	 viewBox="0 0 243.4 263.2" enable-background="new 0 0 243.4 263.2" xml:space="preserve">
<polygon fill="#333333" points="119.9,118.3 171.1,29.6 154.1,0 68.7,147.8 239.4,147.8 222.3,118.3 "/>
<polygon fill="#333333" points="171.1,118.3 102.8,0 17.5,147.8 51.6,147.8 102.8,59.1 137,118.3 "/>
<polygon fill="#333333" points="171.1,29.6 154.1,0 128.5,44.4 145.5,73.9 "/>
<polygon fill="#333333" points="137,118.3 171.1,118.3 145.5,73.9 128.5,103.5 "/>
<polygon fill="#333333" points="128.5,103.5 111.4,73.9 85.8,118.3 119.9,118.3 "/>
<g>
	<g>
		<path fill="#333333" d="M12.2,181.4h7.6L31.9,210h-8.4l-2.1-5.1h-11l-2,5.1H0.1L12.2,181.4z M19.1,198.9l-3.2-8.1l-3.2,8.1H19.1z"
			/>
		<path fill="#333333" d="M51.8,181.6h7.9V210h-7.9V181.6z"/>
		<path fill="#333333" d="M88.9,188.5h-8.5v-6.9h24.9v6.9h-8.5V210h-7.9V188.5z"/>
		<path fill="#333333" d="M125.8,181.6h7.9v11.5l9.8-11.5h9.3L142,193.8l11.1,16.2h-9.4l-7.1-10.5l-2.9,3.2v7.3h-7.9V181.6z"/>
		<path fill="#333333" d="M172.4,181.6h22.8v6.7h-15v4.3h13.6v6.2h-13.6v4.5h15.2v6.7h-23V181.6z"/>
		<path fill="#333333" d="M216.5,181.6h7.4l11.7,15v-15h7.7V210h-6.9l-12.2-15.6V210h-7.7V181.6z"/>
	</g>
</g>
<g>
	<rect x="0" y="227.1" fill="#333333" width="243.4" height="1.2"/>
</g>
<g>
	<path fill="#333333" d="M0.1,243.5h1.5v18.4h11.6v1.3H0.1V243.5z"/>
	<path fill="#333333" d="M42.6,243.3H44l9.2,19.9h-1.6l-2.5-5.5H37.4l-2.5,5.5h-1.5L42.6,243.3z M48.5,256.4l-5.2-11.4L38,256.4
		H48.5z"/>
	<path fill="#333333" d="M70,243.5h1.6l6.2,17.6l5.8-17.6h1.1l5.8,17.6l6.2-17.6h1.5l-7.2,19.9h-1.2l-5.8-17.2l-5.8,17.2h-1.2
		L70,243.5z"/>
	<path fill="#333333" d="M124.4,255.4l-8.5-11.9h1.8l7.4,10.6l7.4-10.6h1.8l-8.5,11.9v7.8h-1.5V255.4z"/>
	<path fill="#333333" d="M155.7,243.5h14.1v1.3h-12.6v7.8h11.3v1.3h-11.3v8h12.7v1.3h-14.2V243.5z"/>
	<path fill="#333333" d="M192.1,243.5h8.3c1.2,0,2.3,0.2,3.2,0.5c0.9,0.3,1.7,0.8,2.3,1.4c0.5,0.5,0.8,1,1.1,1.7
		c0.3,0.6,0.4,1.3,0.4,2v0.1c0,0.8-0.1,1.6-0.4,2.2c-0.3,0.6-0.7,1.2-1.2,1.7c-0.5,0.5-1.1,0.9-1.8,1.1c-0.7,0.3-1.5,0.5-2.3,0.6
		l6.5,8.4h-1.9l-6.3-8.2H200h-6.4v8.2h-1.5V243.5z M200.3,253.7c0.8,0,1.6-0.1,2.3-0.3c0.7-0.2,1.3-0.5,1.8-0.9
		c0.5-0.4,0.9-0.9,1.2-1.4c0.3-0.6,0.4-1.2,0.4-1.9v-0.1c0-1.3-0.5-2.4-1.5-3.2c-1-0.8-2.4-1.2-4.2-1.2h-6.7v8.9H200.3z"/>
	<path fill="#333333" d="M236.7,263.5c-1.6,0-3-0.3-4.3-0.8c-1.3-0.5-2.5-1.3-3.7-2.4l1-1.1c0.5,0.5,1.1,0.9,1.6,1.3
		c0.5,0.4,1.1,0.7,1.7,0.9c0.6,0.2,1.2,0.4,1.8,0.5c0.6,0.1,1.3,0.2,2,0.2c0.7,0,1.4-0.1,2-0.3c0.6-0.2,1.1-0.5,1.6-0.8
		c0.4-0.3,0.8-0.8,1-1.2c0.2-0.5,0.4-1,0.4-1.6v-0.1c0-0.5-0.1-1-0.2-1.4c-0.2-0.4-0.5-0.8-0.9-1.1c-0.4-0.3-1-0.6-1.7-0.9
		c-0.7-0.3-1.6-0.5-2.8-0.7c-1.2-0.2-2.2-0.5-3.1-0.9c-0.8-0.3-1.5-0.7-2.1-1.2c-0.5-0.4-0.9-1-1.2-1.5c-0.2-0.6-0.4-1.3-0.4-2v-0.1
		c0-0.7,0.2-1.4,0.5-2c0.3-0.6,0.8-1.2,1.3-1.6c0.6-0.5,1.2-0.8,2-1.1c0.8-0.3,1.6-0.4,2.5-0.4c1.4,0,2.7,0.2,3.7,0.6
		c1,0.4,2.1,1,3.1,1.8l-0.9,1.2c-0.9-0.8-1.9-1.4-2.8-1.7c-1-0.3-2-0.5-3.1-0.5c-0.7,0-1.4,0.1-2,0.3c-0.6,0.2-1.1,0.5-1.5,0.8
		c-0.4,0.3-0.8,0.7-1,1.2c-0.2,0.5-0.3,0.9-0.3,1.4v0.1c0,0.5,0.1,1,0.2,1.4c0.2,0.4,0.5,0.8,0.9,1.2c0.4,0.3,1,0.7,1.8,0.9
		c0.8,0.3,1.7,0.5,2.9,0.8c2.3,0.5,4,1.1,5,2c1,0.9,1.5,2,1.5,3.5v0.1c0,0.8-0.2,1.5-0.5,2.2c-0.3,0.7-0.8,1.2-1.4,1.7
		c-0.6,0.5-1.3,0.8-2.1,1.1C238.6,263.4,237.7,263.5,236.7,263.5z"/>
</g>
</svg>
