<?xml version="1.0" encoding="utf-8"?>
<!-- Generator: Adobe Illustrator 18.0.0, SVG Export Plug-In . SVG Version: 6.00 Build 0)  -->
<!DOCTYPE svg PUBLIC "-//W3C//DTD SVG 1.1//EN" "http://www.w3.org/Graphics/SVG/1.1/DTD/svg11.dtd">
<svg version="1.1" id="Layer_1" xmlns="http://www.w3.org/2000/svg" xmlns:xlink="http://www.w3.org/1999/xlink" x="0px" y="0px"
	 viewBox="0 0 319.7 133.3" enable-background="new 0 0 319.7 133.3" xml:space="preserve">
<path fill="#333333" d="M111.1,44.4c-12.3,0-22.2-9.9-22.2-22.2C88.9,9.9,78.9,0,66.6,0C54.4,0,44.4,9.9,44.4,22.2
	c0,12.3-9.9,22.2-22.2,22.2C9.9,44.4,0,54.4,0,66.6c0,12.3,9.9,22.2,22.2,22.2c12.3,0,22.2,9.9,22.2,22.2c0,12.3,9.9,22.2,22.2,22.2
	c12.3,0,22.2-9.9,22.2-22.2c0-12.3-10-22.2-22.2-22.2c-12.3,0-22.2-9.9-22.2-22.2c0-12.3,9.9-22.2,22.2-22.2
	c12.3,0,22.2,10,22.2,22.2c0,12.3,9.9,22.2,22.2,22.2c12.3,0,22.2-9.9,22.2-22.2v-0.1C133.3,54.3,123.3,44.4,111.1,44.4"/>
<path fill="#333333" d="M66.6,0C54.4,0,44.4,9.9,44.4,22.2c0,12.3-10,22.2-22.2,22.2C9.9,44.4,0,54.4,0,66.6
	c0,12.3,9.9,22.2,22.2,22.2c12.3,0,22.2-9.9,22.2-22.2c0-12.3,9.9-22.2,22.2-22.2c12.3,0,22.2-9.9,22.2-22.2C88.9,9.9,78.9,0,66.6,0
	"/>
<path fill="#333333" d="M94.7,113.1c0-10.2,8.2-18.4,18.4-18.4c10.2,0,18.4,8.3,18.4,18.4c0,10.2-8.2,18.4-18.4,18.4
	C102.9,131.5,94.7,123.3,94.7,113.1"/>
<path fill="#333333" d="M318.4,79.8c-0.9-1-2-1.5-3.3-1.5h-14.5c-0.9,0-1.7-0.2-2.5-0.6c-0.8-0.4-1.4-0.9-2-1.5
	c-0.1-0.1-0.2-0.3-0.3-0.4c-0.3-0.6-0.5-1.3-0.5-2V49.2c0-1.3-0.5-2.4-1.5-3.3c-1-0.9-2.2-1.3-3.7-1.3c-1.4,0-2.6,0.5-3.6,1.3
	c-1,0.9-1.5,2-1.5,3.3v25.1c0,1.8,0.4,3.5,1.2,5.2c0.8,1.7,1.9,3.2,3.3,4.4c1.4,1.2,3,2.2,4.8,3c0.1,0.1,0.2,0.1,0.4,0.2
	c1.9,0.9,3.8,1.4,5.9,1.4h14.5c1.3,0,2.4-0.5,3.3-1.5c0.9-1,1.3-2.2,1.3-3.7C319.7,82,319.3,80.8,318.4,79.8"/>
<path fill="#333333" d="M173.2,88.5c-4.9,0-10.3-1.5-14.9-5c-4.6-3.5-8.1-9.5-8.1-17c-0.1-7.4,3-13.2,7.2-16.6
	c4.2-3.5,9.1-4.8,13.3-4.8c6,0,11.2,2.4,14.8,6.3c3.6,3.8,5.6,9,5.6,14.4c0,5.4,0,11.1,0,17.8c0,2.7-2.1,4.8-4.7,5l-1.6,0.1l-0.2,0
	H173.2z M163.7,57.4c-2,1.8-3.6,4.2-3.7,9c0.1,4.6,1.7,7.2,4.2,9.2c2.5,2,6.1,3,8.9,2.9h8c0-4.6,0-8.8,0-12.9
	c-0.1-6-4.1-10.8-10.5-10.8c0,0-0.1,0-0.1,0C168.6,54.9,165.7,55.7,163.7,57.4"/>
<path fill="#333333" d="M224.7,46c-1.7,0.7-3.3,1.5-4.8,2.6c-1.5-1.1-3.1-2-4.9-2.6c-1.7-0.6-3.5-1-5.5-1c-2.1,0-4.1,0.4-6,1.2
	c-1.9,0.8-3.5,1.8-4.9,3.1c-1.4,1.3-2.5,2.8-3.3,4.4c-0.8,1.7-1.2,3.4-1.2,5.2v25.1c0,1.3,0.5,2.4,1.5,3.3c1,0.9,2.2,1.3,3.6,1.3
	c1.5,0,2.7-0.4,3.7-1.3c1-0.9,1.5-2,1.5-3.3V59.4c0-1.3,0.5-2.4,1.5-3.3c1-0.9,2.2-1.3,3.6-1.3c1.5,0,2.7,0.4,3.7,1.3
	c1,0.9,1.5,2,1.5,3.3v24.6c0,1.3,0.5,2.4,1.5,3.3c1,0.9,2.2,1.3,3.6,1.3c1.4,0,2.6-0.4,3.6-1.3c1-0.9,1.5-2,1.5-3.3V59.4
	c0-1.3,0.5-2.4,1.5-3.3c1-0.9,2.3-1.3,3.7-1.3c1.4,0,2.6,0.4,3.6,1.3c1,0.9,1.5,2,1.5,3.3v24.6c0,1.3,0.5,2.4,1.5,3.3
	c1,0.9,2.2,1.3,3.7,1.3c1.4,0,2.6-0.4,3.6-1.3c1-0.9,1.5-2,1.5-3.3V58.8c-0.1-1.9-0.6-3.7-1.4-5.4c-0.9-1.7-1.9-3.1-3.3-4.4
	c-1.4-1.3-3-2.3-4.8-3c-1.8-0.7-3.8-1.1-5.9-1.1C228.3,45,226.4,45.3,224.7,46"/>
<path fill="#333333" d="M263.1,53.9h13.6c1.5,0,2.7-0.4,3.7-1.3c1-0.9,1.5-2,1.5-3.3c-0.1-1.3-0.6-2.4-1.6-3.3
	c-1-0.9-2.1-1.3-3.5-1.3h-13.6c-2,0-3.9,0.4-5.7,1.1c-1.8,0.8-3.3,1.7-4.7,3c-1.3,1.2-2.4,2.6-3.2,4.2c-0.8,1.6-1.1,3.2-1.1,4.9
	c0,1.9,0.4,3.6,1.2,5.2c0.8,1.6,1.9,3,3.2,4.1c1.4,1.2,2.9,2.1,4.7,2.8c1.8,0.7,3.6,1,5.6,1.1h5.3c1.2,0,2.2,0.4,3.1,1.2
	c0.9,0.7,1.3,1.7,1.3,2.8c0,1.1-0.5,2-1.4,2.8c-0.9,0.8-2,1.2-3.1,1.2h-13.6c-1.5,0-2.7,0.5-3.7,1.4c-1,0.9-1.5,2-1.5,3.2
	c0,1.3,0.5,2.4,1.5,3.3c1,0.9,2.2,1.3,3.7,1.3h13.6c2,0,3.9-0.4,5.7-1.1c1.8-0.7,3.3-1.7,4.7-2.8c1.3-1.2,2.4-2.6,3.1-4.2
	c0.8-1.6,1.1-3.3,1.1-5c0-1.8-0.4-3.5-1.2-5.2c-0.8-1.6-1.9-3-3.3-4.2c-1.4-1.2-2.9-2.2-4.7-2.8c-1.8-0.7-3.6-1-5.5-1h-5.2
	c-1.2,0-2.3-0.4-3.1-1.1c-0.8-0.8-1.3-1.6-1.3-2.7c0-1.2,0.5-2.2,1.3-3C260.9,54.3,261.9,53.9,263.1,53.9"/>
<path fill="#333333" d="M168.1,98.2h2.2v26.5h-2.2v-2.9c-1.1,1.2-3,3.4-7.2,3.4c-6.4,0-8.6-5.8-8.6-10.2c0-4.3,2-9.9,8.6-9.9
	c4.5,0,6.3,2.3,7.1,3.6h0.1V98.2z M161.2,123.3c1.3,0,3-0.3,4.6-1.7c1-0.9,2.3-2.4,2.3-6.6c0-6.4-4.3-8.1-7-8.1
	c-3.3,0-6.4,2.6-6.4,8.2C154.7,120.5,157.8,123.3,161.2,123.3"/>
<path fill="#333333" d="M178.4,101.6h-2.2v-3.4h2.2V101.6z M178.4,124.7h-2.2v-19.2h2.2V124.7z"/>
<path fill="#333333" d="M183.6,110.8c0.7-4,3.2-5.7,8.3-5.7c7.3,0,7.3,3.6,7.3,8.2c0,0.4-0.1,4.6-0.1,5.4c0,3.4,0.3,4.3,1.2,6.1
	h-2.5c-0.4-1.2-0.6-1.6-0.7-2.9c-0.9,0.9-3.1,3.4-7.8,3.4c-4.4,0-6.1-2.8-6.1-5.3c0-1.3,0.3-2.9,2.1-4.3c0.7-0.6,1.6-1.1,5.9-1.7
	c1.9-0.3,4-0.5,5.7-1.1V112c0-2.4,0-5.1-5-5.1c-5,0-5.6,2.9-6,4.3L183.6,110.8z M196.9,114.4c-1.6,0.6-4.3,1.1-6.1,1.4
	c-2.5,0.4-5.3,0.9-5.3,3.8c0,2.2,2,3.7,4.2,3.7c1.6,0,3.6-0.7,5.2-2c1.4-1.1,2-2.6,2-5.7V114.4z"/>
<path fill="#333333" d="M207.2,124.7H205V98.2h2.2v10.4h0.1c0.9-1.2,2.8-3.6,7.2-3.6c6.2,0,8.5,5.2,8.5,9.9c0,2.7-1,10.2-8.7,10.2
	c-4.2,0-5.9-2-7-3.4h-0.1V124.7z M214.2,107c-1.7,0-3.2,0.6-4.4,1.6c-1.3,1.1-2.6,2.9-2.6,6.9c0,5.5,3.2,7.9,6.9,7.9
	c3.4,0,6.6-2.8,6.6-8.2C220.6,109.5,217.5,107,214.2,107"/>
<path fill="#333333" d="M228.8,115.4c0.1,4.6,2.2,7.9,6.5,7.9c4.2,0,5.4-3.4,5.9-4.7l2.2,0.4c-0.7,1.9-2.2,6.1-8.2,6.1
	c-5.5,0-8.7-3.9-8.7-10c0-6,3.1-10,8.7-10c8.3,0,8.4,8.4,8.4,10.3H228.8z M241.2,113.5c-0.4-5.1-3.4-6.6-6.1-6.6
	c-1.1,0-5.5,0.3-6.3,6.6H241.2z"/>
<path fill="#333333" d="M251,105.5h3.6v1.7H251v12.6c0,2.4,0.3,3.4,2.2,3.4c0.3,0,0.6,0,1.8-0.3l0.3,1.8c-1.2,0.2-1.7,0.3-2.4,0.3
	c-4.2,0-4.1-2.8-4.1-4.9v-12.9h-2.7v-1.7h2.7v-4.9l2.2-1.4V105.5z"/>
<path fill="#333333" d="M259.7,115.4c0.1,4.6,2.2,7.9,6.4,7.9c4.2,0,5.4-3.4,5.9-4.7l2.2,0.4c-0.7,1.9-2.2,6.1-8.2,6.1
	c-5.5,0-8.7-3.9-8.7-10c0-6,3.1-10,8.7-10c8.3,0,8.4,8.4,8.4,10.3H259.7z M272.1,113.5c-0.4-5.1-3.4-6.6-6.1-6.6
	c-1.1,0-5.5,0.3-6.3,6.6H272.1z"/>
<path fill="#333333" d="M289.9,110.5c-0.5-1.7-1.1-3.6-4.9-3.6c-2.8,0-4.5,1.1-4.5,3.1c0,1.8,1,2.7,5.7,3.7c3.9,0.8,6.7,2.1,6.7,5.5
	c0,3.1-2.3,5.9-7.5,5.9c-5.3,0-7.1-2.5-7.9-5.6l2.3-0.4c0.3,1.1,1.1,4.2,5.6,4.2c3.3,0,5-1.7,5-3.7c0-1.9-1.4-2.9-5.6-3.7
	c-4.1-0.9-6.7-2.2-6.7-5.4c0-1.9,1.3-5.4,6.8-5.4c3.8,0,6.1,1.1,7.1,5.1L289.9,110.5z"/>
</svg>
