<?xml version="1.0" encoding="utf-8"?>
<!-- Generator: Adobe Illustrator 18.0.0, SVG Export Plug-In . SVG Version: 6.00 Build 0)  -->
<!DOCTYPE svg PUBLIC "-//W3C//DTD SVG 1.1//EN" "http://www.w3.org/Graphics/SVG/1.1/DTD/svg11.dtd">
<svg version="1.1" id="Layer_1" xmlns="http://www.w3.org/2000/svg" xmlns:xlink="http://www.w3.org/1999/xlink" x="0px" y="0px"
	 viewBox="0 0 200 37.8" enable-background="new 0 0 200 37.8" xml:space="preserve">
<g>
	<path fill="#333333" d="M172.9,11.3c0-0.4-0.3-0.6-0.6-0.6h-5.1c-0.3,0-0.6,0.3-0.6,0.6v25.3c0,0.4,0.3,0.6,0.6,0.6h5.1
		c0.4,0,0.6-0.3,0.6-0.6V11.3z"/>
	<path fill="#333333" d="M134.4,24.6l-6.6-4.4c-1.5-1.1-2.2-2-2.1-2.9c0.4-2.3,3.6-1.8,3.6-1.8c2.8,0.1,5.7,0.6,8.5,1.1
		c0.3,0.1,0.5-0.1,0.5-0.4c0-1.3,0-2.6-0.1-3.9c0-0.3-0.2-0.5-0.5-0.6c-3.2-0.6-6.5-1-9.7-1c0,0-8.1,0-8.1,6.6c0,2,0.8,4.3,3.4,6.2
		l0,0l7,4.6c1.7,1.1,2.4,2,2.2,3c-0.4,2.3-3.6,1.8-3.6,1.8c-2.8-0.1-5.7-0.6-8.5-1.1c-0.3-0.1-0.5,0.1-0.5,0.4c0,1.3,0,2.6,0.1,3.9
		c0,0.3,0.2,0.5,0.5,0.6c3.2,0.6,6.5,1,9.7,1c0,0,8.1,0,8.1-6.6C138.3,29.1,137.5,26.6,134.4,24.6"/>
	<path fill="#333333" d="M157.1,24.6l-6.6-4.4c-1.5-1.1-2.2-2-2.1-2.9c0.4-2.3,3.6-1.8,3.6-1.8c2.8,0.1,5.7,0.6,8.5,1.1
		c0.3,0.1,0.5-0.1,0.5-0.4c0-1.3,0-2.6-0.1-3.9c0-0.3-0.2-0.5-0.5-0.6c-3.2-0.6-6.5-1-9.7-1c0,0-8.1,0-8.1,6.6c0,2,0.8,4.3,3.4,6.2
		l0,0l7,4.6c1.7,1.1,2.4,2,2.2,3c-0.4,2.3-3.6,1.8-3.6,1.8c-2.8-0.1-5.7-0.6-8.5-1.1c-0.3-0.1-0.5,0.1-0.5,0.4c0,1.3,0,2.6,0.1,3.9
		c0,0.3,0.2,0.5,0.5,0.6c3.2,0.6,6.5,1,9.7,1c0,0,8.1,0,8.1-6.6C161,29.1,160.1,26.6,157.1,24.6"/>
	<path fill="#333333" d="M172.9,2c0-0.4-0.3-0.6-0.6-0.6h-5.1c-0.3,0-0.6,0.3-0.6,0.6v4.8c0,0.4,0.3,0.6,0.6,0.6h5.1
		c0.4,0,0.6-0.3,0.6-0.6V2z"/>
	<path fill="#333333" d="M114.1,10.7H109c-0.3,0-0.6,0.3-0.6,0.6v18.3c0,0,0,0,0,0c0,0.5,0,0.6-0.1,0.7c-1.5,1.4-3.2,2.4-6.1,2.4
		c-3.4,0-3.2-3.3-3.2-3.3v-2.8h0V11.3c0-0.4-0.3-0.6-0.6-0.6h-5.1c-0.4,0-0.6,0.3-0.6,0.6v15.6c-0.1,1.4-0.1,10.9,8.2,10.9
		c2.7,0,5.6-1.4,7.2-2.5c0.2-0.1,0.3-0.1,0.3,0.1v1.3c0,0.4,0.3,0.6,0.6,0.6h5.1c0.4,0,0.6-0.3,0.6-0.6V11.3
		C114.7,11,114.4,10.7,114.1,10.7"/>
	<path fill="#333333" d="M89,36.6L81.2,5.4c0-0.1-0.1-0.1-0.1-0.2c-0.5-1.5-2.1-2.7-3.7-2.7h-4.5c-1.7,0-3.4,1.3-3.8,3l-1.7,6.8
		c0,0,0,0.1,0,0.1l-6,24.2c-0.1,0.4,0.1,0.7,0.5,0.7h5.1c0.3,0,0.7-0.3,0.8-0.7l2.1-9.3h10.8l2.1,9.3c0.1,0.4,0.4,0.7,0.8,0.7h5.1
		C88.9,37.3,89.1,37,89,36.6 M70.9,22.5l2.9-12.9c0.2-0.7,0.6-2,1.5-2c1.1,0,1.1,0.9,1.6,2.7c0,0,0,0,0,0l2.7,12.2H70.9z"/>
	<path fill="#333333" d="M199.4,26.4c0,0,0.3,0,0.5-0.1c0.1-0.1,0.1-0.4,0.1-0.4v-1.4c0-5-1.2-8.6-3.4-11c-2.2-2.4-5.2-3.2-7.6-3.1
		c-4.2-0.1-7.6,2.1-9.3,5c-1.7,2.9-2.1,6.2-2.2,9.3c0,5.3,1.9,9.1,4.6,11.1c2.5,1.9,4.6,2,6.4,2l0,0c0.1,0,0.3,0,0.4,0
		c0.4,0,0.8,0,1.3,0c2.7-0.1,5.4-0.4,8.1-0.9c0.3-0.1,0.5-0.3,0.5-0.6c0-1.3,0-2.6,0.1-3.9c0-0.3-0.2-0.4-0.5-0.4
		c-2.7,0.5-5.5,0.8-8.3,0.9c-0.1,0-0.2,0-0.3,0c-1.3,0-3.2-0.4-4.4-1.4c-1.3-1-2.1-2.5-2.3-5.1c9.8,0,10,0,14.2,0H199.4z
		 M183.1,21.9c0.2-1.5,0.6-2.8,1.2-3.8c1-1.5,2-2.3,4.6-2.4c1.5,0,2.7,0.4,3.7,1.4c0.8,0.8,1.5,2.2,1.8,4.7H183.1z"/>
	<path fill="#333333" d="M51,36.4c0,0.5-0.4,0.8-0.8,0.8H0.9c-0.5,0-0.9-0.4-0.9-0.8v-2.1c0-0.5,0.4-0.9,0.9-0.9h49.3
		c0.5,0,0.8,0.4,0.8,0.9V36.4z"/>
	<path fill="#333333" d="M51,29.2c0,0.5-0.4,0.8-0.8,0.8H0.9c-0.5,0-0.9-0.4-0.9-0.8v-2.1c0-0.5,0.4-0.9,0.9-0.9h49.3
		c0.5,0,0.8,0.4,0.8,0.9V29.2z"/>
	<path fill="#333333" d="M50.4,19.8L50.4,19.8L27.6,0.9c0,0-1-0.9-2-0.9c-1,0-2.1,1-2.1,1L0.7,19.8h0C0.3,20.1,0,20.6,0,21.2
		c0,1,0.8,1.8,1.8,1.8h0h0h47.3l0,0c0,0,0,0,0,0c1,0,1.8-0.8,1.8-1.8C51,20.6,50.8,20.1,50.4,19.8 M43.8,19.1c0,0.2-0.1,0.3-0.3,0.3
		v0H7.6c0,0,0,0,0,0c0,0,0,0,0,0c-0.2,0-0.3-0.1-0.3-0.3c0-0.1,0.1-0.2,0.1-0.2L24.9,4.5c0,0,0.4-0.4,0.8-0.4c0.3,0,0.7,0.4,0.7,0.4
		l17.3,14.4C43.7,18.9,43.8,19,43.8,19.1"/>
	<path fill="#333333" d="M176,7.4c-0.1,0-0.2,0-0.3,0c-0.4,0-0.6-0.1-0.6-0.6V5.4l-0.4,0c0,0-0.1,0-0.1-0.1V5.2c0,0,0-0.1,0.1-0.1
		h0.4V4.7c0,0,0-0.1,0.1-0.1l0.2,0c0,0,0,0,0,0c0,0,0.1,0,0.1,0.1v0.5h0.4c0,0,0.1,0,0.1,0.1v0.1c0,0,0,0.1-0.1,0.1h-0.4v1.5
		c0,0.2,0.1,0.3,0.2,0.3h0.2c0.1,0,0.1,0,0.1,0.1L176,7.4C176.1,7.4,176.1,7.4,176,7.4z"/>
	<path fill="#333333" d="M179.2,7.4H179c0,0-0.1,0-0.1-0.1V5.9c0-0.4-0.2-0.4-0.4-0.4c-0.1,0-0.3,0.1-0.5,0.1c0,0.1,0,0.2,0,0.3v1.5
		c0,0,0,0.1-0.1,0.1h-0.2c0,0-0.1,0-0.1-0.1V5.8c0-0.4-0.1-0.4-0.3-0.4c-0.2,0-0.3,0.1-0.5,0.2v1.8c0,0,0,0.1-0.1,0.1h-0.2
		c0,0-0.1,0-0.1-0.1V5.2c0,0,0-0.1,0.1-0.1h0.2c0,0,0.1,0,0.1,0.1v0.1c0.2-0.1,0.4-0.2,0.6-0.2c0.2,0,0.3,0.1,0.4,0.2
		c0.2-0.1,0.5-0.2,0.7-0.2c0.4,0,0.7,0.2,0.7,0.8L179.2,7.4C179.3,7.4,179.2,7.4,179.2,7.4z"/>
</g>
</svg>
