<?xml version="1.0" encoding="utf-8"?>
<!-- Generator: Adobe Illustrator 18.0.0, SVG Export Plug-In . SVG Version: 6.00 Build 0)  -->
<!DOCTYPE svg PUBLIC "-//W3C//DTD SVG 1.1//EN" "http://www.w3.org/Graphics/SVG/1.1/DTD/svg11.dtd">
<svg version="1.1" id="Layer_1" xmlns="http://www.w3.org/2000/svg" xmlns:xlink="http://www.w3.org/1999/xlink" x="0px" y="0px"
	 viewBox="-52 -464 1920 1664" enable-background="new -52 -464 1920 1664" xml:space="preserve">
<g transform="scale(1 -1) translate(0 -1280)">
	<path fill="#333333" d="M1740,752v832c0,8.7-3.2,16.2-9.5,22.5s-13.8,9.5-22.5,9.5H108c-8.7,0-16.2-3.2-22.5-9.5S76,1592.7,76,1584
		V752c0-8.7,3.2-16.2,9.5-22.5S99.3,720,108,720h1600c8.7,0,16.2,3.2,22.5,9.5S1740,743.3,1740,752z M1868,1584V496
		c0-44-15.7-81.7-47-113s-69-47-113-47h-544c0-24.7,5.3-50.5,16-77.5s21.3-50.7,32-71s16-34.8,16-43.5c0-17.3-6.3-32.3-19-45
		s-27.7-19-45-19H652c-17.3,0-32.3,6.3-45,19s-19,27.7-19,45c0,9.3,5.3,24,16,44s21.3,43.3,32,70s16,52.7,16,78H108
		c-44,0-81.7,15.7-113,47s-47,69-47,113v1088c0,44,15.7,81.7,47,113s69,47,113,47h1600c44,0,81.7-15.7,113-47S1868,1628,1868,1584z"
		/>
</g>
</svg>
