<?xml version="1.0" encoding="utf-8"?>
<!-- Generator: Adobe Illustrator 18.0.0, SVG Export Plug-In . SVG Version: 6.00 Build 0)  -->
<!DOCTYPE svg PUBLIC "-//W3C//DTD SVG 1.1//EN" "http://www.w3.org/Graphics/SVG/1.1/DTD/svg11.dtd">
<svg version="1.1" id="Layer_1" xmlns="http://www.w3.org/2000/svg" xmlns:xlink="http://www.w3.org/1999/xlink" x="0px" y="0px"
	 viewBox="0 0 570.6 301.2" enable-background="new 0 0 570.6 301.2" xml:space="preserve">
<g>
	<path fill="#333333" d="M505.3,188.5l-0.4-0.3l-0.9-0.7l0.4-0.4l1-1.1c0.6-0.6,1.1-1.3,1.6-2c0.5-0.7,0.9-1.5,1.3-2.3
		c0.2-0.4,0.3-0.8,0.4-1.3c0.2-0.9,0.2-1.9-0.1-2.8l-0.3-0.5c-0.1-0.2-0.2-0.3-0.4-0.4c-0.1-0.1-0.3-0.2-0.4-0.2
		c-0.3-0.1-0.5-0.2-0.8-0.2l-0.8-0.1l-0.7-0.1c-0.2,0-0.3-0.1-0.5-0.1c-0.7-0.3-1.4-0.7-1.9-1.2c-1.2-1.2-1.9-2.6-2.2-4.3
		c-0.3-2.6,0.5-5,2.3-6.9c0.8-0.8,1.8-1.3,2.9-1.4c0.8-0.1,1.6-0.1,2.4,0.1c1.3,0.3,2.5,1,3.3,2.1c0.4,0.6,0.8,1.2,1.1,1.9
		c0.3,0.7,0.5,1.5,0.7,2.2c0.9,4.2,0.5,8.3-1.1,12.3c-0.5,1.1-1,2.1-1.8,3c-1,1.2-1.9,2.2-3.1,3.1L505.3,188.5 M467.1,184.5l0.3,1.6
		c0,0.1,0,0.2,0,0.3l0.1,1.3l3.8-2.5c0.3-0.2,0.6-0.3,0.9-0.4c0.3-0.1,0.6-0.2,0.9-0.3c1.9-0.3,3.7-0.4,5.6-0.2
		c2.6,0.2,5,0.7,7.5,1.5c1.4,0.4,2.7,1,4.1,1.7c3.2,1.6,5.6,4.2,6.9,7.6c0.4,1.2,0.8,2.3,1,3.5c0.3,1.4,0.4,2.7,0.5,4.1
		c0.2,3.3,0.3,6.4,0.2,9.7l-0.2,12.7l3.5,0l0,4.4h-21.6v-25.6l0.1-3.4l0-3.5c0-0.8-0.1-1.4-0.2-2.2c-0.1-0.7-0.3-1.3-0.6-1.9
		c-0.2-0.4-0.5-0.8-0.8-1.2c-0.5-0.5-1-0.9-1.6-1.3c-0.3-0.2-0.6-0.3-0.9-0.4c-0.2-0.1-0.3-0.1-0.5-0.1c-1.3-0.3-2.6-0.2-3.8,0.3
		c-1.1,0.4-1.9,1-2.6,1.9c-0.3,0.4-0.5,0.8-0.7,1.3c-0.1,0.3-0.2,0.6-0.3,1c-0.2,0.7-0.3,1.4-0.3,2.2c-0.1,1.2-0.1,2.4,0,3.6
		l0.1,3.5l0,25.8H447v-4.2h0.1c0.9,0,1.8-0.1,2.7-0.2l0.7-0.1v-36.1H447v-4.4H467.1z M540,188.4l-5,3.4l-4.3-1.6l-0.3,0.3
		c-0.2,0.2-0.4,0.3-0.6,0.5c-0.3,0.3-0.6,0.7-0.8,1.1c-0.2,0.5-0.3,1-0.4,1.5c0,1.3,0.3,2.4,1,3.5c0.4,0.7,0.9,1.3,1.4,1.8
		c0.5,0.6,1.1,1.1,1.7,1.6l1.7,1.4c0.5,0.4,0.9,0.9,1.4,1.3c1.4,1.6,2.5,3.2,3.5,5c0.8,1.6,1.3,3.1,1.6,4.9c0.3,2.4-0.1,4.7-1.3,6.8
		c-0.4,0.8-0.9,1.5-1.4,2.1c-1.3,1.6-2.8,2.9-4.5,4c-2.8,1.8-5.5,3.3-8.6,4.7c-0.6,0.3-1.2,0.5-1.9,0.7l-0.3-0.3
		c-0.2-0.2-0.4-0.3-0.7-0.5c-1.3-0.9-2.4-1.6-3.8-2.4l0.8-0.7c0.6-0.5,1.1-1,1.6-1.6c1.4-1.7,2.1-3.8,1.9-6
		c-0.2-1.9-0.8-3.5-1.8-5.1c-0.5-0.7-0.9-1.3-1.5-1.9l-3.2-3.3c-1-1.1-1.8-2.2-2.6-3.4c-0.5-0.8-0.8-1.6-1.2-2.5
		c-0.8-2.2-0.7-4.5,0.1-6.7c0.6-1.5,1.3-2.7,2.4-4c1.7-2,3.6-3.6,5.9-5.1c2.8-1.8,5.4-3.4,8.4-4.9c0.6-0.3,1.2-0.5,1.8-0.8
		L540,188.4z M210.7,160.8c3.3-0.4,6.5,0.6,9,2.9c2,2,2.7,4.9,1.7,7.6c-0.3,0.7-0.6,1.3-1.1,1.8c-0.7,0.8-1.4,1.3-2.4,1.8
		c-1.1,0.5-2.1,0.8-3.3,1c-1.4,0.2-2.6,0.3-4,0.1c-1.1-0.1-2.1-0.4-3.2-0.8c-1.7-0.7-3-1.8-4-3.4c-1.7-2.8-1.1-6.5,1.4-8.7
		c0.7-0.6,1.5-1.1,2.4-1.5C208.5,161.2,209.5,160.9,210.7,160.8z M416.7,201.6c-2.5,1-4.5,2.8-5.7,5.2c-0.6,1.1-1,2.2-1.3,3.5
		c-0.6,2.3-0.8,4.4-0.8,6.7c0,1.3,0.2,2.5,0.6,3.7c0.2,0.7,0.5,1.2,0.9,1.8c0.4,0.5,0.8,0.9,1.3,1.2c0.7,0.5,1.5,0.7,2.3,0.7
		c0.3,0,0.5-0.1,0.8-0.2c0.2-0.1,0.4-0.2,0.7-0.4c0.4-0.3,0.8-0.7,1.1-1.1c0.7-0.8,1.2-1.6,1.8-2.6l0.1-0.2l-0.1-18.6l-0.8,0
		c-0.2,0-0.3,0-0.5,0l-0.2,0L416.7,201.6z M406.9,192H399v-6.5l2.2-0.4c2.9-0.5,5.5-0.8,8.4-1c3.9-0.3,7.4-0.2,11.2,0.5
		c2.2,0.4,4.2,1,6.2,1.9c1.8,0.8,3.4,1.8,4.9,3.1c2.7,2.4,4.2,5.6,4.4,9.3l0.2,26.2l3.4,0l0.1,4.3h-20.3l0.1-2.5l0-0.3l-0.1-1.3
		l-1.1,0.7c-0.4,0.2-0.7,0.5-1.1,0.7l-1.7,1.3l-1.1,0.8c-0.3,0.2-0.7,0.4-1,0.6c-0.1,0.1-0.3,0.1-0.4,0.1c-0.5,0.1-1,0.2-1.5,0.3
		c-1.9,0.1-3.6,0.1-5.4-0.3c-2.9-0.4-5.4-1.2-8.1-2.4c-3.2-1.5-5.6-4.2-6.6-7.6c-0.5-1.7-0.8-3.4-0.7-5.1c0.1-2.4,0.8-4.6,2.2-6.6
		c1.4-2.1,3.1-3.7,5.2-5c3.5-2.2,7.1-3.7,11.2-4.6c2.7-0.6,5.2-1,7.9-1.1l0.7,0l0.1-0.7c0.1-1.1,0-2.1-0.2-3.2
		c-0.2-0.9-0.6-1.7-1.2-2.5c-0.9-1.1-2-1.8-3.4-2.1c-0.5-0.1-0.9-0.2-1.5-0.3c-1.1-0.1-2.2-0.1-3.3,0.1l-0.4,0.1L406.9,192z
		 M365.2,188.1c-0.6,0.1-1.1,0.4-1.6,0.9c-0.5,0.5-0.8,1-1.1,1.6c-0.3,0.7-0.6,1.4-0.8,2.1c-0.2,0.8-0.4,1.6-0.5,2.5
		c-0.8,5.4-0.9,10.4-0.3,15.9l0.1,0.8l0.8-0.1l0.4-0.1l0.8-0.1c0.3,0,0.6-0.1,0.9-0.2c1-0.3,1.8-0.8,2.6-1.4c0.8-0.7,1.4-1.4,2-2.3
		c0.6-0.9,1-1.8,1.4-2.9c1.1-3.2,1.5-6.4,1.2-9.8c-0.1-1-0.3-1.9-0.6-2.9c-0.3-0.9-0.6-1.6-1.1-2.3c-0.5-0.7-1-1.2-1.8-1.5
		C366.8,188,366,187.9,365.2,188.1z M380.5,225.2v3.8l-1.5,0.2c-5.2,0.7-10,0.7-15.2,0.2c-3.1-0.4-5.9-1-8.8-2.1
		c-1.7-0.7-3.2-1.5-4.7-2.5c-3-2.2-5.2-4.9-6.5-8.4c-1.8-4.7-2.4-9.5-1.8-14.5c0.8-6.5,4.7-12,10.6-15c3.9-1.9,7.8-3,12.2-3.2
		c4.4-0.3,8.4,0.2,12.5,1.6c2.5,0.9,4.7,2,6.9,3.7c0.9,0.8,1.7,1.5,2.5,2.5c2.2,2.8,2.9,6.4,2,9.9c-0.4,1.5-0.9,2.8-1.7,4.2
		c-0.4,0.7-0.7,1.2-1.2,1.8c-1.1,1.2-2.2,2.2-3.6,3.2c-2.4,1.6-4.8,2.7-7.5,3.6c-3.9,1.3-7.6,1.9-11.7,2.1l-1,0l0.3,0.9
		c0.4,1.5,1.1,2.7,2,3.9c0.9,1.1,1.8,2,3.1,2.7c1.3,0.7,2.5,1.1,4,1.4c1.6,0.3,3.1,0.4,4.7,0.4C377.6,225.5,379,225.4,380.5,225.2z
		 M296.8,229.5v-4l2.3,0h1.9c0.6,0,1.2-0.1,1.9-0.2c1-0.1,1.8-0.4,2.7-0.9c1.2-0.7,2.1-1.6,2.8-2.7c0.8-1.3,1.5-2.7,1.9-4.2
		c0.6-1.8,1-3.5,1.3-5.3c0.7-4.5,1.1-8.6,1.2-13.1l-0.3-33.4h-3.5l0.2-4.4l26.2,0.2v4.2h-3.5l0.3,19.5c0.1,5.8-0.1,11.1-0.5,16.9
		c-0.2,2.5-0.6,4.9-1.1,7.4c-0.5,2.3-1.1,4.3-2,6.4c-0.8,2-1.8,3.7-3.1,5.4c-2.8,3.4-6.3,5.8-10.5,7.1c-5.2,1.5-10.3,1.9-15.7,1.3
		L296.8,229.5z M256.6,201.6c-2.5,1-4.5,2.8-5.7,5.2c-0.6,1.1-1,2.2-1.3,3.5c-0.6,2.3-0.8,4.4-0.8,6.7c0,1.3,0.2,2.5,0.6,3.7
		c0.2,0.7,0.5,1.2,0.9,1.8c0.4,0.5,0.8,0.9,1.3,1.2c0.7,0.5,1.5,0.7,2.3,0.7c0.3,0,0.5-0.1,0.8-0.2c0.2-0.1,0.4-0.2,0.7-0.4
		c0.4-0.3,0.8-0.7,1.1-1.1c0.7-0.8,1.2-1.6,1.8-2.6l0.1-0.2l-0.1-18.6l-0.8,0c-0.2,0-0.3,0-0.5,0l-0.2,0L256.6,201.6z M246.7,192
		h-7.9v-6.5l2.2-0.4c2.9-0.5,5.5-0.8,8.4-1c3.9-0.3,7.4-0.2,11.2,0.5c2.2,0.4,4.2,1,6.2,1.9c1.8,0.8,3.4,1.8,4.9,3.1
		c2.7,2.4,4.2,5.6,4.4,9.3l0.2,26.2l3.4,0l0,4.3h-20.3l0.1-2.5l0-0.3l0-1.3l-1.1,0.7c-0.4,0.2-0.7,0.5-1.1,0.7l-1.7,1.3l-1.1,0.8
		c-0.3,0.2-0.7,0.4-1,0.6c-0.1,0.1-0.3,0.1-0.4,0.1c-0.5,0.1-1,0.2-1.5,0.3c-1.9,0.1-3.6,0.1-5.4-0.3c-2.9-0.4-5.4-1.2-8.1-2.4
		c-3.2-1.5-5.6-4.2-6.6-7.6c-0.5-1.7-0.8-3.4-0.7-5.1c0.1-2.4,0.8-4.6,2.2-6.6c1.4-2.1,3.1-3.7,5.2-5c3.5-2.2,7.1-3.7,11.2-4.6
		c2.7-0.6,5.2-1,7.9-1.1l0.7,0l0.1-0.7c0.1-1.1,0-2.1-0.2-3.2c-0.2-0.9-0.6-1.7-1.2-2.5c-0.9-1.1-2-1.8-3.4-2.1
		c-0.5-0.1-1-0.2-1.5-0.3c-1.1-0.1-2.2-0.1-3.3,0.1l-0.4,0.1L246.7,192z M194,184.3v10.3h-7.8l-0.1-0.2l-0.5-2.3l-0.2-0.7l-0.3-0.9
		l-0.8,0.4c-0.9,0.5-1.7,1-2.6,1.6c-1.5,1.1-2.6,2.5-3.4,4.2c-0.4,0.9-0.7,1.7-0.9,2.6c-0.5,2.1-0.8,4.1-0.8,6.4l0.1,19.3l3.7,0.1
		l0,4.3h-21.6v-40.5h-3.5v-4.4l20.3,0.2l0,2l0,0.6l0,0.2l0.1,1.1l1-0.5l4.5-2.1c2.6-1.1,5.1-1.7,7.9-2c0.9-0.1,1.8-0.1,2.8,0
		L194,184.3z M199.8,184.5h21.4v40.5l3.4,0.1l0.1,4.3h-21.6v-40.5h-3.5L199.8,184.5z M123.7,187.9c-0.4,0-0.8,0.1-1.2,0.2
		c-0.4,0.2-0.7,0.4-1.1,0.6c-0.3,0.3-0.6,0.6-0.9,1c-0.3,0.4-0.5,0.8-0.7,1.3c-0.3,0.5-0.5,1.1-0.6,1.6c-0.4,1.5-0.7,2.8-0.9,4.3
		c-0.6,5.3-0.7,10.2-0.4,15.6c0.1,2.6,0.4,5,1,7.6c0.2,0.7,0.3,1.3,0.6,1.9c0.2,0.6,0.4,1.1,0.7,1.6c0.3,0.5,0.6,0.8,0.9,1.2
		c0.4,0.4,0.7,0.6,1.2,0.8c1.4,0.6,3,0.3,4-0.8c0.4-0.4,0.7-0.7,0.9-1.2c0.3-0.5,0.5-1,0.7-1.5c0.2-0.6,0.4-1.2,0.6-1.9
		c0.4-1.6,0.6-3.1,0.8-4.7c0.5-5.8,0.5-11.1,0.1-16.9c-0.1-1.8-0.3-3.5-0.7-5.2c-0.1-0.7-0.3-1.3-0.5-1.9c-0.2-0.5-0.4-1-0.7-1.5
		c-0.2-0.4-0.5-0.8-0.8-1.1c-0.6-0.6-1.2-1-2-1.2C124.4,188,124.1,187.9,123.7,187.9z M122,183.7c3.3-0.3,6.3,0,9.5,0.8
		c7.8,2,13.8,7.8,16.1,15.6c1.5,4.9,1.4,9.8-0.1,14.7c-1.6,5-4.8,9-9.3,11.7c-2.6,1.6-5.3,2.6-8.3,3.1c-3.7,0.7-7.2,0.8-10.9,0.4
		c-3.7-0.4-7-1.4-10.2-3.3c-1.9-1.1-3.4-2.4-4.8-4.1c-1.1-1.4-1.9-2.8-2.5-4.5c-2.3-5.9-2.8-11.9-1.5-18c0.4-2,1-3.7,1.9-5.5
		c1.4-2.7,3.3-4.7,5.8-6.4c2.8-1.9,5.6-3.1,8.9-3.7C118.5,184.1,120.2,183.8,122,183.7z M66.2,161.6l21.3,0.1v63.4l3.5,0l0.1,4.3
		H69.6v-63.6h-3.5L66.2,161.6z M57.2,225.9L57.2,225.9L57.2,225.9c-0.4,0.2-0.7,0.4-1.1,0.5c-3.9,1.5-7.6,2.4-11.7,2.9
		c-7.8,1-15.1,0.7-22.7-1c-2.6-0.6-4.9-1.5-7.3-2.8c-2.6-1.4-4.7-3.2-6.6-5.5c-1.1-1.4-2-2.8-2.9-4.4c-2.8-5.4-4.3-10.8-4.7-16.8
		c-0.6-6.2,0-11.9,1.8-17.9c1.1-3.7,2.7-6.8,5.1-9.8c2-2.5,4.3-4.3,7.1-5.8c3.2-1.7,6.3-2.8,9.9-3.4c2-0.4,3.8-0.6,5.8-0.8
		c6.4-0.5,12.3,0,18.6,1.4v7.3h-7.6l-0.2-0.5c-0.3-1.1-0.6-2.1-0.8-3.3l-0.1-0.6l-0.6-0.1c-1.6-0.2-3.1-0.2-4.8,0.1
		c-1.4,0.2-2.7,0.7-3.9,1.4c-1.2,0.8-2.2,1.7-3.1,2.8c-0.9,1.2-1.7,2.4-2.3,3.8c-0.7,1.5-1.2,3-1.6,4.6c-0.9,3.6-1.4,7-1.7,10.7
		c-0.5,7.3-0.1,14.1,1.1,21.3c0.3,2,0.7,3.8,1.3,5.7c0.4,1.2,0.8,2.3,1.4,3.5c0.6,1.1,1.2,2.1,2,3c1.3,1.4,2.8,2.3,4.6,2.8
		c0.5,0.1,0.9,0.2,1.4,0.2c0.7,0,1.3,0.1,2,0l2.2,0l0-17.2l-0.3-5.5c-0.1-0.7-0.1-1.3-0.3-2c-0.1-0.5-0.2-0.9-0.4-1.3
		c-0.2-0.4-0.5-0.7-0.8-1c-0.4-0.4-0.9-0.7-1.5-0.9c-0.4-0.1-0.8-0.2-1.2-0.3c-0.5-0.1-0.9-0.1-1.5-0.1v-4.4l6,0
		c1.3,0,2.5,0.1,3.7,0.2c4.1,0.5,7.7,2.2,10.8,5c2.6,2.3,4.1,5.3,4.5,8.7c0.4,3.3,0.5,6.3,0.4,9.6L57.2,225.9z"/>
	<path fill="#333333" d="M162.7,256.8l-2.6,7.1l0,0c-0.9-0.9-1.8-1.8-2.9-2.6c-2.7-2.2-5.7-3.6-9.2-4.2c-1.1-0.2-2.1-0.2-3.3-0.1
		c-1,0.1-1.9,0.3-2.8,0.7c-1.8,0.8-3.1,2.2-3.7,4c-0.5,1.4-0.5,2.7-0.1,4.1c0.3,1,0.7,1.8,1.3,2.6c1,1.4,2.2,2.4,3.7,3.3
		c3.2,1.9,6.6,2.9,10.3,3c1,0,1.8,0,2.8,0l-2.4,6.4l-0.3,0c-1.3,0.1-2.6,0-3.9-0.1c-5.4-0.7-10.1-2.4-14.7-5.3c-1.9-1.2-3.5-2.4-5-4
		c-1.3-1.4-2.3-2.8-3.2-4.5c-1.4-2.9-1.7-6-0.7-9.1c1-3.1,3-5.5,5.8-7c2-1.1,4-1.7,6.3-2.1c3.3-0.5,6.3-0.3,9.5,0.5
		c1.7,0.5,3.3,1,5,1.6C156.2,252.4,159.5,254.3,162.7,256.8 M192.8,270.1c-0.9-0.2-1.7-0.3-2.6-0.2c-1.2,0.1-2.3,0.4-3.4,1
		c-1,0.6-1.8,1.5-2.4,2.5c-0.8,1.5-1.2,3.2-1.1,4.9c0.1,2.4,1.5,4.6,3.6,5.7c1.6,0.8,3.3,1.2,5.1,1.2c0.8,0,1.6-0.2,2.4-0.4
		c1.1-0.4,2.1-1.1,2.8-2.1c0.8-1.1,1.3-2.2,1.6-3.5c0.2-0.8,0.3-1.6,0.2-2.5c-0.1-2-1.1-3.8-2.7-5
		C195.2,270.8,194,270.3,192.8,270.1z M194.1,262.8c2.4,0.5,4.5,1.2,6.7,2.2c1.9,0.9,3.5,1.9,5.1,3.2c1.4,1.2,2.5,2.5,3.5,4
		c1.7,3,2.3,6.3,1.5,9.6c-0.8,3.4-2.7,6.1-5.5,8c-2.4,1.5-4.8,2.4-7.6,2.7c-3.4,0.4-6.5,0.2-9.8-0.6c-2.3-0.5-4.4-1.2-6.6-2.2
		c-1.9-0.9-3.5-1.9-5.1-3.3c-1.4-1.2-2.5-2.5-3.5-4.1c-1.8-2.9-2.3-6.3-1.5-9.6c0.8-3.3,2.7-6.1,5.5-8c2.3-1.5,4.8-2.4,7.6-2.7
		C187.7,261.9,190.8,262.1,194.1,262.8z M239.2,276l-0.6,6l13.3,1.4l-0.6,5.4l-13.3-1.4l-1.2,12l-12.8-1.3l3-28.9l26.7,2.7l-0.6,5.5
		L239.2,276z M279.1,277.6l0,6l13.4-0.1l0,5.4l-13.4,0.1l0.1,12.1l-12.8,0.1l-0.1-29.1L293,272l0,5.5L279.1,277.6z M318.8,274.8
		l0.7,5.9l14-1.6l0.6,5.5l-14,1.6l0.7,6.4l15.2-1.7l0.7,5.8l-28,3.2l-3.3-28.9l27.6-3.1l0.6,5.4L318.8,274.8z M360.2,267.5l1.3,5.8
		l13.8-3.2l1.2,5.3l-13.8,3.2l1.4,6.3l14.9-3.4l1.3,5.7l-27.5,6.3l-6.5-28.3l27.1-6.2l1.2,5.3L360.2,267.5z M411.8,256.2l-0.4-0.2
		c-1.5-0.6-3-0.9-4.6-1c-1.5-0.1-2.8,0.1-4.2,0.6c-0.4,0.1-0.7,0.3-1,0.5c-0.3,0.2-0.6,0.4-0.8,0.6c-0.2,0.2-0.4,0.5-0.6,0.7
		c-0.2,0.3-0.3,0.6-0.3,0.9c0,0.3,0,0.7,0.1,1c0.1,0.2,0.1,0.3,0.2,0.5c0.2,0.3,0.4,0.6,0.7,0.8c0.2,0.1,0.3,0.2,0.5,0.3
		c0.2,0.1,0.4,0.1,0.6,0.2c0.2,0.1,0.4,0.1,0.6,0.2c0.5,0.1,1,0.2,1.6,0.2l2.2,0.1c1.5,0,2.8,0.2,4.2,0.4c1,0.1,1.9,0.4,2.8,0.7
		c1.5,0.5,2.6,1.5,3.5,2.8c0.2,0.3,0.3,0.6,0.4,0.9c0.2,0.7,0.3,1.3,0.2,2c-0.1,1.1-0.4,2.2-0.9,3.2c-0.4,0.8-0.8,1.6-1.4,2.3
		c-0.8,0.9-1.6,1.6-2.6,2.3c-1.2,0.8-2.4,1.5-3.8,2c-2.9,1.2-5.7,2.1-8.9,2.6c-1.7,0.3-3.3,0.3-5,0.2l-2.1-6l0.2,0
		c2.7,0.3,5.1,0.2,7.7-0.5c0.8-0.2,1.5-0.5,2.2-0.8c0.4-0.2,0.7-0.4,1-0.7c0.3-0.2,0.5-0.5,0.8-0.8c0.1-0.1,0.2-0.3,0.3-0.5
		c0.1-0.3,0.2-0.7,0.2-1c0-0.2,0-0.4-0.1-0.5c-0.1-0.3-0.2-0.5-0.4-0.8c-0.2-0.3-0.4-0.4-0.7-0.6c-0.3-0.2-0.6-0.3-0.9-0.4
		c-0.4-0.1-0.8-0.2-1.2-0.2l-5.7-0.6c-1.1-0.2-2-0.4-3-0.7c-0.4-0.1-0.8-0.3-1.1-0.4c-0.6-0.3-1.2-0.6-1.7-1.1
		c-0.7-0.7-1.2-1.5-1.5-2.4c-0.5-1.4-0.5-2.8-0.1-4.2c0.3-1,0.8-1.9,1.4-2.8c1.2-1.5,2.5-2.7,4.2-3.7c4.7-2.8,10-3.7,15.4-2.6
		L411.8,256.2z"/>
	<path fill="#333333" d="M338.2,59.8c0.2,0,0.4,0.1,0.5,0.3c10.4,25.1,3.7,54.2-16.7,72.5c-16.2,14.1-36.4,20.8-57.7,19.2
		c-5-0.4-9.5-1.5-14.1-3.2c-13.3-4.8-24.4-12.3-33.8-22.8c-1.8-2-3.2-4-4.5-6.3l-0.2-0.4l-0.2-0.4c-0.4-0.8-0.5-1.6-0.3-2.4
		c0.1-0.3,0.2-0.5,0.4-0.7c0.3-0.3,0.6-0.4,1-0.5c0.2,0,0.3,0,0.4,0c0.5,0.1,0.9,0.2,1.3,0.4c1.1,0.6,1.9,1.2,2.8,2.1
		c18.9,16.7,45.8,20.8,69.1,10.5c4.4-2,8.1-4.7,11.3-8.4c1-1.2,1.8-2.4,2.6-3.8c0.8-1.6,1-3.3,0.4-5c-0.6-1.7-1.7-3-3.3-3.7
		c-1.4-0.7-2.9-1-4.5-1l-24.6,2.1c-2.9-0.1-5.4-0.9-7.9-2.4c-0.5-0.3-0.9-0.6-1.2-1.1c-0.3-0.4-0.4-0.8-0.4-1.3
		c0-0.5,0.1-0.9,0.3-1.4c0.3-0.7,0.8-1.2,1.3-1.7c0.9-0.9,1.9-1.6,3.1-2.2c2-1,3.9-1.7,6-2.3c2.1-0.6,4.1-1.1,6.3-1.6l19.7-3.6
		c13.8-2.2,25.6-8.9,34.5-19.6c3.1-3.7,5.7-7.2,8.2-11.3C337.9,59.9,338,59.8,338.2,59.8"/>
	<path fill="#333333" d="M193.6,82.3c8.5,3.1,16.9,4.2,26,3.4c0.1,0,0.3,0,0.4,0.1c0.1,0.1,0.2,0.1,0.3,0.3
		c4.8,9.8,11,17.7,19.4,24.7c6.4,5.4,13.5,8.8,21.7,10.4c11.8,2.3,23.6-1.3,32.2-9.6l1.7-1.7c0.4-0.4,1-0.5,1.5-0.2
		c0.8,0.5,1.3,1.4,1.3,2.3c-0.1,1.4-0.5,2.7-1.4,3.9c-2.4,3.2-5.2,5.7-8.7,7.7c-17.4,9.8-38.1,10.3-55.8,1.2
		c-9.8-5.4-17.8-12.1-24.7-20.9c-5.6-6.7-10.1-13.4-14.3-21.1c-0.1-0.1-0.1-0.3,0.1-0.4C193.2,82.3,193.4,82.3,193.6,82.3 M243,36.7
		l-9.2,3.1c-8.1,3-15.2,6.7-22.4,11.5c-1.7,1.2-3.2,2.3-4.8,3.7c-3.3,2.4-5.6,5.5-6.8,9.4c-0.3,0.9-0.4,1.8-0.3,2.7
		c0.1,1.5,0.7,2.7,1.7,3.8c1,0.9,2,1.7,3.2,2.2c3.1,1.4,6.1,2.1,9.5,2.3c3.2,0.3,6.2,0.3,9.5,0.1c22.7-1.1,43.2-7,62.9-18.2
		c3.7-2.2,6.9-4.4,10.2-7.1c1.1-0.9,2-1.8,2.8-2.9l1.7-2.2c0.8-1.1,1.4-2.1,1.8-3.3c0.4-0.9,0.5-1.9,0.4-2.9
		c-0.1-1.4-0.7-2.6-1.6-3.6c-0.5-0.5-1-1-1.6-1.4c-1.6-1.1-3.3-1.9-5.2-2.4c-5.1-1.5-10-1.9-15.4-1.5c-10.4,0.3-19.8,1.8-29.9,4.6
		L243,36.7z M261.9,35.8c9.1-2.4,17.9-2.7,27.1-0.9c1.2,0.2,2.3,0.6,3.5,1.1c0.6,0.3,1.1,0.6,1.6,0.9c0.6,0.4,1.1,0.9,1.4,1.5
		c0.4,0.7,0.6,1.5,0.5,2.3c0,0.5-0.1,1-0.3,1.5c-0.7,1.6-1.6,3-2.8,4.3c-2.5,2.6-5,4.7-8,6.7c-5.6,3.8-11.1,6.6-17.4,9
		c-7.9,3.2-15.3,5.4-23.6,7l-12.5,2.5c-0.1,0-0.2,0-0.4-0.1c-0.1-0.1-0.2-0.2-0.2-0.3c0-0.1,0-0.2,0.1-0.4c0.1-0.1,0.2-0.2,0.3-0.2
		c8.7-2.3,16.4-4.7,24.9-7.8c6.7-2.5,12.6-5.4,18.7-9c3.2-1.7,5.8-3.8,8.3-6.5c0.6-0.6,1-1.2,1.4-2c0.3-0.5,0.4-0.9,0.6-1.5
		c0.2-0.6,0.2-1.2,0-1.8c-0.6-2.2-2.2-4-4.4-4.8c-1.5-0.6-2.9-0.9-4.5-1.1c-4.9-0.6-9.5-0.4-14.3,0.5c-0.1,0-0.3,0-0.4-0.1
		c-0.1-0.1-0.2-0.2-0.2-0.3c0-0.1,0-0.3,0.1-0.4C261.7,35.9,261.8,35.9,261.9,35.8z M327.3,33.6c-0.6,0.1-1.2,0.3-1.8,0.6
		c-1,0.5-1.9,1.2-2.6,2c-1.5,1.4-2.4,3.1-3,5c0.9,6.3,1.1,12.2,0.7,18.6c0,0.2,0.1,0.3,0.2,0.4c0.2,0.1,0.3,0,0.5-0.1
		c3.1-3.7,5.7-7.4,8.1-11.6c1.6-2.6,2.5-5.2,2.9-8.1c0.2-1.2,0.1-2.3-0.2-3.4c-0.2-0.6-0.4-1-0.8-1.5l-0.2-0.3l-0.2-0.3
		c-0.2-0.2-0.4-0.4-0.7-0.6c-0.3-0.3-0.7-0.5-1.2-0.6C328.3,33.6,327.8,33.5,327.3,33.6z M241.2,30.4l0.8-0.3
		c20-6.5,39.4-8.5,60.3-6.1c4.4,0.5,8.3,2.1,11.7,4.9l3.4-2.3c1.2-0.8,2.4-1.5,3.7-2.2c3-1.6,6.2-2.3,9.6-2c2.5,0.2,4.6,1.2,6.5,2.8
		c3,2.5,4.7,5.9,4.9,9.8c0.1,4.2-0.7,8-2.4,11.9c-2.7,6.5-5.8,12.1-9.7,18c-5.6,8.7-13.2,15.1-22.7,19.3c-0.2,0.1-0.4,0-0.5-0.1
		c-0.1-0.1-0.2-0.3-0.2-0.5c2.9-11.2,3.9-21.8,3.1-33.3c0-0.1-0.1-0.3-0.2-0.3c-0.1-0.1-0.3,0-0.4,0.1
		c-28.9,26.5-66.7,38.1-105.5,32.5c-2.4-0.4-4.6-0.9-6.9-1.7c-1.4-0.5-2.6-1-3.9-1.8c-2.7-1.6-4.3-4.2-4.6-7.3
		c-0.2-2.8,0.2-5.4,1.2-8c0.8-1.9,1.7-3.6,2.9-5.3c2.5-3.4,5.2-6.2,8.7-8.7c6.8-5,13.5-8.9,21.3-12.2l10.8-4.3L241.2,30.4z
		 M249,50.2l-4,1.3c-4.9,1.6-9.3,3.4-14,5.6c-0.1,0.1-0.2,0.1-0.4,0c-0.1,0-0.2-0.1-0.3-0.2c-0.1-0.1-0.1-0.2,0-0.4
		c0-0.1,0.1-0.2,0.2-0.3c6.4-3.6,12.4-6.4,19.3-9l0.3-0.1l4.2-1.5c5.7-2.1,11.3-3.1,17.3-3c0.6,0,1.1,0,1.7,0.1
		c0.6,0.1,1.1,0.2,1.6,0.4c0.4,0.1,0.7,0.4,0.9,0.8c0.2,0.4,0.2,0.8,0,1.1c-0.2,0.6-0.5,1.1-1,1.5c-0.5,0.6-1,1.1-1.6,1.6
		c-2.4,2-4.7,3.7-7.4,5.2C250.8,62,235.4,67,218.1,68.7l-2.8,0.2c-2.3,0.2-4.5-0.1-6.7-1c-0.4-0.2-0.7-0.3-1-0.6
		c-0.3-0.2-0.6-0.4-0.8-0.7c-0.6-0.6-0.9-1.4-0.8-2.3c0.1-0.5,0.2-1,0.5-1.4c0.3-0.6,0.7-1.1,1.2-1.6c0.6-0.7,1.2-1.3,2-1.8
		c3.1-2.5,6.2-4.4,9.8-6.3c9.7-5.2,19.1-9,29.6-12.2l9.8-2.9c0.2,0,0.4,0,0.5,0.1c0.2,0.1,0.3,0.2,0.3,0.4c0,0.2,0,0.3-0.1,0.5
		c-0.1,0.2-0.2,0.3-0.4,0.3l-5.3,1.9l-3.9,1.4l-4.6,1.7l-5.9,2.4l-5.9,2.6c-3.2,1.4-6.1,2.7-9.2,4.3c-2.2,1.1-4,2.4-5.8,4
		c-1,0.8-1.8,1.8-2.5,2.9c-0.2,0.3-0.3,0.6-0.4,0.9c-0.1,0.3-0.2,0.7-0.2,1c0,0.3,0.1,0.6,0.3,0.8c0.2,0.3,0.5,0.5,0.9,0.6
		c0.5,0.2,0.9,0.3,1.4,0.3c0.7,0.1,1.3,0.1,2,0c9.5-0.7,18-2.4,27-5.4c6.1-1.7,11.3-4.4,16.3-8.2c0.4-0.3,0.7-0.6,1-0.9
		c0.2-0.2,0.3-0.4,0.5-0.6c0.1-0.2,0.2-0.4,0.3-0.7c0-0.2,0-0.4-0.1-0.5c-0.1-0.2-0.2-0.3-0.4-0.4c-0.2-0.1-0.4-0.2-0.7-0.3
		c-0.9-0.2-1.7-0.2-2.7-0.1c-0.7,0.1-1.3,0.2-2,0.3c-2,0.4-3.9,0.9-5.9,1.5l-1.4,0.4L249,50.2z"/>
	<path fill="#333333" d="M241.2,30.4c3.1,1,5.8,2.3,8.5,4.2c0.4,0.3,0.8,0.5,1.2,0.9c0.4,0.3,0.7,0.7,1.1,1.1c1.3,1.4,2,3.2,2.1,5.1
		c0.1,1.9-0.1,3.6-0.7,5.4c-0.3,0.8-0.6,1.5-1.1,2.2c-2.1,3.3-5.1,5.7-8.8,7c0,0-0.1,0-0.1,0c0,0-0.1-0.1-0.1-0.1c0,0,0-0.1,0-0.1
		c0,0,0-0.1,0.1-0.1c3.5-2,5.9-5.2,7-9.1c0.3-1.5,0.2-2.9-0.4-4.3c-0.3-0.6-0.6-1-0.9-1.5c-0.4-0.5-0.7-0.9-1.2-1.3
		c-1.4-1.4-2.9-2.4-4.8-3c-3.4-1.1-6.5-2.1-10-3l-13.7-3.9c-2.1-0.6-4-1.2-6-2.1c-1.4-0.6-2.5-1.3-3.7-2.2c-1.7-1.3-2.8-3.1-3.3-5.2
		c-0.6-2.3-0.3-4.6,0.7-6.8c1-2,2.4-3.7,4.1-5.1c3-2.4,6.1-4.2,9.7-5.5c4.4-1.7,8.7-2.5,13.4-2.7c6-0.3,11.6,0.6,17.2,2.8
		c1.4,0.6,2.6,1.2,3.8,2.1c1,0.7,1.8,1.5,2.5,2.5c0.3,0.3,0.4,0.7,0.6,1.1c0.2,0.5,0.3,1,0.4,1.5c0,0.4,0,0.7,0,1.1l0,0.6
		c0,0.7-0.1,1.3-0.4,1.9c-0.4,0.9-1,1.7-1.7,2.4c-0.6,0.6-1.1,1-1.8,1.4c-1.5,0.9-2.9,1.5-4.6,2c-3.8,1.4-7.7,1.7-11.7,0.9
		c-0.6-0.1-1.2-0.3-1.8-0.5c-0.9-0.3-1.7-0.9-2.4-1.6c-0.3-0.4-0.6-0.7-0.9-1.1c-0.1-0.2-0.2-0.4-0.1-0.6c0-0.2,0.1-0.4,0.3-0.5
		c0.2-0.1,0.4-0.2,0.6-0.2c0.2,0,0.4,0.1,0.6,0.3c0.4,0.6,1,1,1.7,1.3c0.7,0.3,1.4,0.5,2.2,0.5c0.8,0.1,1.6,0.1,2.4,0
		c2.7-0.2,5.2-1.4,7-3.5c0.4-0.5,0.7-0.9,1-1.5c0.7-1.5,0.7-3.2-0.1-4.7c-1-2-2.7-3.5-4.8-4.3c-0.7-0.3-1.4-0.5-2.1-0.7
		c-7-1.5-14-0.3-20.2,3.4c-2.4,1.4-4.1,3.4-5.2,5.9c-0.5,1.2-0.8,2.4-0.8,3.7c0,2,0.8,3.9,2.2,5.4c0.7,0.8,1.5,1.4,2.5,2
		c1.2,0.7,2.3,1.3,3.6,1.7c1.4,0.5,2.7,1,4.2,1.4L241.2,30.4"/>
	<g>
		<g>
			<path fill="#333333" d="M556.4,218.3v1.8h-3.5v9.2h-2.2v-9.2h-3.5v-1.8H556.4z M568.4,229.4l-0.4-6.5c-0.1-0.9-0.1-1.9-0.1-3.1
				h-0.1c-0.3,1-0.6,2.3-0.9,3.3l-2,6.1h-2.3l-2-6.3c-0.2-0.8-0.5-2.2-0.8-3.1h-0.1c0,1,0,2.1-0.1,3.1l-0.4,6.5h-2.1l0.8-11.1h3.3
				l1.9,5.4c0.3,0.9,0.5,1.7,0.7,2.8h0c0.3-1,0.5-1.9,0.8-2.7l1.9-5.5h3.2l0.9,11.1H568.4z"/>
		</g>
	</g>
</g>
</svg>
