<?xml version="1.0" encoding="utf-8"?>
<!-- Generator: Adobe Illustrator 18.0.0, SVG Export Plug-In . SVG Version: 6.00 Build 0)  -->
<!DOCTYPE svg PUBLIC "-//W3C//DTD SVG 1.1//EN" "http://www.w3.org/Graphics/SVG/1.1/DTD/svg11.dtd">
<svg version="1.1" id="Layer_1" xmlns="http://www.w3.org/2000/svg" xmlns:xlink="http://www.w3.org/1999/xlink" x="0px" y="0px"
	 viewBox="0 942.3 640 193.7" enable-background="new 0 942.3 640 193.7" xml:space="preserve">
<path fill="#333333" d="M640,1136v-84.6c0-57-46.3-103.3-103.3-103.3h-3.1v-0.3c0-3.1-2.4-5.5-5.5-5.5h-94c-3.1,0-5.5,2.4-5.5,5.5
	v0.4H103.3C46.3,948.2,0,994.4,0,1051.4v84.6H640z"/>
<ellipse fill="#4D4D4D" cx="320.1" cy="1015.1" rx="11.8" ry="11.8"/>
<path fill="#4D4D4D" d="M277.4,1079.3h89.1c7.4,0,13.3-5.9,13.3-13.3s-5.9-13.3-13.3-13.3h-89.1c-7.4,0-13.3,5.9-13.3,13.3
	C264.1,1073.2,270,1079.3,277.4,1079.3z"/>
</svg>
