<?xml version="1.0" encoding="utf-8"?>
<!-- Generator: Adobe Illustrator 18.0.0, SVG Export Plug-In . SVG Version: 6.00 Build 0)  -->
<!DOCTYPE svg PUBLIC "-//W3C//DTD SVG 1.1//EN" "http://www.w3.org/Graphics/SVG/1.1/DTD/svg11.dtd">
<svg version="1.1" id="Layer_1" xmlns="http://www.w3.org/2000/svg" xmlns:xlink="http://www.w3.org/1999/xlink" x="0px" y="0px"
	 viewBox="0 0 330 150.5" enable-background="new 0 0 330 150.5" xml:space="preserve">
<g>
	<path fill="#333333" d="M165,8.2l30,14v52.3l-30,14l-30-14V22.1L165,8.2 M165,0l-37.4,17.4v61.8L165,96.6l37.4-17.4V17.4L165,0
		L165,0z"/>
	<g>
		<polygon fill="#333333" points="164.5,59.4 186.4,52.1 186.4,65 165,74.9 		"/>
	</g>
	<path fill="#333333" d="M165,88.4l-30-14V22.1l30-14V0l0,0l-37.4,17.4v61.8L165,96.6V88.4z"/>
	<g>
		<polygon fill="#333333" points="165,74.9 144.9,65.5 144.9,31.7 165,22.4 		"/>
	</g>
</g>
<g>
	<g>
		<path fill="#333333" d="M197.7,146.9h2.9v3.3h-2.9V146.9z"/>
		<path fill="#333333" d="M215.5,150.5c-1.6,0-3.1-0.3-4.4-0.9c-1.3-0.6-2.5-1.4-3.5-2.4c-1-1-1.8-2.2-2.3-3.6
			c-0.6-1.4-0.8-2.9-0.8-4.4v-0.1c0-1.6,0.3-3,0.8-4.4c0.6-1.4,1.3-2.6,2.3-3.6c1-1,2.2-1.9,3.5-2.5c1.4-0.6,2.8-0.9,4.5-0.9
			c1,0,1.9,0.1,2.7,0.3c0.8,0.2,1.6,0.4,2.2,0.7c0.7,0.3,1.3,0.7,1.9,1.1c0.6,0.4,1.2,0.9,1.7,1.4l-1.7,1.8c-0.9-0.9-2-1.6-3-2.2
			c-1.1-0.6-2.4-0.8-3.9-0.8c-1.2,0-2.3,0.2-3.4,0.7s-1.9,1.1-2.7,1.9c-0.8,0.8-1.4,1.8-1.8,2.9c-0.4,1.1-0.6,2.3-0.6,3.5v0.1
			c0,1.3,0.2,2.5,0.6,3.6c0.4,1.1,1,2.1,1.8,2.9c0.8,0.8,1.7,1.5,2.7,1.9c1,0.5,2.2,0.7,3.4,0.7c1.5,0,2.8-0.3,3.9-0.8
			c1.1-0.6,2.2-1.3,3.2-2.3l1.6,1.6c-0.6,0.6-1.2,1.1-1.8,1.6c-0.6,0.5-1.3,0.9-2,1.2c-0.7,0.3-1.5,0.6-2.3,0.8
			C217.4,150.4,216.5,150.5,215.5,150.5z"/>
		<path fill="#333333" d="M238.2,150.5c-1.7,0-3.2-0.3-4.6-0.9c-1.4-0.6-2.6-1.4-3.5-2.5c-1-1-1.7-2.2-2.3-3.6
			c-0.5-1.4-0.8-2.8-0.8-4.3v-0.1c0-1.5,0.3-3,0.8-4.3c0.5-1.4,1.3-2.6,2.3-3.6c1-1,2.2-1.9,3.6-2.5c1.4-0.6,2.9-0.9,4.6-0.9
			s3.2,0.3,4.6,0.9c1.4,0.6,2.6,1.4,3.5,2.5c1,1,1.7,2.2,2.3,3.6c0.5,1.4,0.8,2.8,0.8,4.3c0,0,0,0,0,0.1c0,1.5-0.3,3-0.8,4.3
			c-0.5,1.4-1.3,2.6-2.3,3.6c-1,1-2.2,1.9-3.6,2.5C241.4,150.2,239.9,150.5,238.2,150.5z M238.3,148.2c1.3,0,2.4-0.2,3.5-0.7
			c1.1-0.5,2-1.1,2.7-1.9s1.3-1.8,1.8-2.9c0.4-1.1,0.6-2.3,0.6-3.5v-0.1c0-1.3-0.2-2.4-0.6-3.5c-0.4-1.1-1-2.1-1.8-2.9
			c-0.8-0.8-1.7-1.5-2.7-1.9c-1.1-0.5-2.2-0.7-3.5-0.7c-1.3,0-2.4,0.2-3.5,0.7c-1.1,0.5-2,1.1-2.7,1.9c-0.8,0.8-1.3,1.8-1.8,2.9
			c-0.4,1.1-0.6,2.3-0.6,3.5v0.1c0,1.3,0.2,2.4,0.6,3.5c0.4,1.1,1,2.1,1.8,2.9c0.8,0.8,1.7,1.5,2.7,1.9
			C235.9,148,237,148.2,238.3,148.2z"/>
		<path fill="#333333" d="M254.1,128.2h2.5l8,12l8-12h2.5v22h-2.5v-17.8l-8,11.8h-0.1l-8-11.8v17.8h-2.4V128.2z"/>
		<path fill="#333333" d="M280.1,146.9h2.9v3.3h-2.9V146.9z"/>
		<path fill="#333333" d="M296,128h2.3l10,22.2h-2.7l-2.6-5.8h-12l-2.6,5.8h-2.5L296,128z M302.1,142.1l-5-11.2l-5,11.2H302.1z"/>
		<path fill="#333333" d="M320.8,150.5c-1.4,0-2.6-0.2-3.7-0.6c-1.1-0.4-2.1-1-2.9-1.8c-0.8-0.8-1.4-1.8-1.9-3
			c-0.4-1.2-0.7-2.6-0.7-4.1v-12.8h2.5v12.6c0,2.4,0.6,4.2,1.8,5.5c1.2,1.3,2.8,1.9,4.9,1.9c2,0,3.6-0.6,4.8-1.8
			c1.2-1.2,1.8-3,1.8-5.4v-12.8h2.5v12.6c0,1.6-0.2,3-0.7,4.2c-0.4,1.2-1.1,2.2-1.9,3c-0.8,0.8-1.8,1.4-2.9,1.8
			C323.5,150.3,322.2,150.5,320.8,150.5z"/>
	</g>
	<g>
		<path fill="#333333" d="M0,128.2h4.8v17.6h11v4.4H0V128.2z"/>
		<path fill="#333333" d="M19,128.2h4.8v22H19V128.2z"/>
		<path fill="#333333" d="M28.8,128.2H34l5.8,9.3l5.8-9.3h5.2v22H46v-14.4l-6.2,9.4h-0.1l-6.1-9.3v14.3h-4.8V128.2z"/>
		<path fill="#333333" d="M66.1,150.5c-1.7,0-3.3-0.3-4.7-0.9c-1.4-0.6-2.7-1.4-3.7-2.4c-1-1-1.8-2.2-2.4-3.6
			c-0.6-1.4-0.9-2.8-0.9-4.4v-0.1c0-1.6,0.3-3,0.9-4.4c0.6-1.4,1.4-2.6,2.4-3.6c1-1,2.3-1.9,3.7-2.5c1.4-0.6,3-0.9,4.7-0.9
			s3.3,0.3,4.7,0.9c1.4,0.6,2.7,1.4,3.7,2.4c1,1,1.8,2.2,2.4,3.6c0.6,1.4,0.9,2.8,0.9,4.4v0.1c0,1.6-0.3,3-0.9,4.4
			c-0.6,1.4-1.4,2.6-2.4,3.6c-1,1-2.3,1.9-3.7,2.5C69.3,150.2,67.8,150.5,66.1,150.5z M66.1,146.1c1,0,1.9-0.2,2.7-0.5
			c0.8-0.4,1.5-0.8,2.1-1.5c0.6-0.6,1-1.4,1.4-2.2c0.3-0.8,0.5-1.7,0.5-2.7v-0.1c0-0.9-0.2-1.8-0.5-2.7c-0.3-0.8-0.8-1.6-1.4-2.2
			c-0.6-0.6-1.3-1.1-2.1-1.5c-0.8-0.4-1.7-0.5-2.7-0.5c-1,0-1.9,0.2-2.7,0.5c-0.8,0.4-1.5,0.8-2.1,1.5c-0.6,0.6-1,1.4-1.4,2.2
			c-0.3,0.8-0.5,1.7-0.5,2.7v0.1c0,0.9,0.2,1.8,0.5,2.7c0.3,0.8,0.8,1.6,1.4,2.2c0.6,0.6,1.3,1.1,2.1,1.5
			C64.3,145.9,65.2,146.1,66.1,146.1z"/>
		<path fill="#333333" d="M90.7,150.5c-3,0-5.3-0.8-7-2.5c-1.7-1.6-2.5-4.1-2.5-7.3v-12.6H86v12.4c0,1.8,0.4,3.2,1.3,4.1
			c0.8,0.9,2,1.4,3.5,1.4c1.5,0,2.7-0.4,3.5-1.3c0.8-0.9,1.3-2.2,1.3-4v-12.6h4.8v12.4c0,1.7-0.2,3.1-0.7,4.4
			c-0.5,1.2-1.1,2.3-1.9,3.1c-0.8,0.8-1.9,1.4-3,1.9C93.5,150.3,92.1,150.5,90.7,150.5z"/>
		<path fill="#333333" d="M112.5,150.5c-1.7,0-3.3-0.3-4.9-0.9c-1.6-0.6-3.1-1.5-4.4-2.7l2.9-3.4c1,0.8,2,1.5,3.1,1.9
			c1.1,0.5,2.2,0.7,3.5,0.7c1,0,1.8-0.2,2.3-0.5c0.6-0.4,0.8-0.9,0.8-1.5v-0.1c0-0.3-0.1-0.6-0.2-0.8c-0.1-0.2-0.3-0.5-0.7-0.7
			c-0.3-0.2-0.8-0.4-1.4-0.6c-0.6-0.2-1.3-0.4-2.3-0.7c-1.1-0.3-2.1-0.6-3-0.9c-0.9-0.3-1.7-0.7-2.3-1.2c-0.6-0.5-1.1-1.1-1.5-1.8
			c-0.3-0.7-0.5-1.6-0.5-2.7v-0.1c0-1,0.2-1.9,0.6-2.7c0.4-0.8,0.9-1.5,1.6-2.1c0.7-0.6,1.5-1,2.4-1.4c0.9-0.3,2-0.5,3.1-0.5
			c1.6,0,3.1,0.2,4.4,0.7c1.4,0.5,2.6,1.2,3.7,2.1l-2.5,3.6c-1-0.7-1.9-1.2-2.9-1.6c-0.9-0.4-1.9-0.6-2.8-0.6
			c-0.9,0-1.7,0.2-2.1,0.5c-0.5,0.4-0.7,0.8-0.7,1.4v0.1c0,0.4,0.1,0.7,0.2,0.9c0.1,0.3,0.4,0.5,0.7,0.7c0.4,0.2,0.8,0.4,1.5,0.6
			c0.6,0.2,1.4,0.4,2.3,0.7c1.1,0.3,2.1,0.6,3,1c0.9,0.4,1.6,0.8,2.2,1.3c0.6,0.5,1,1.1,1.4,1.8c0.3,0.7,0.5,1.5,0.5,2.5v0.1
			c0,1.1-0.2,2.1-0.6,2.9c-0.4,0.8-0.9,1.6-1.7,2.1c-0.7,0.6-1.6,1-2.5,1.3C114.8,150.3,113.7,150.5,112.5,150.5z"/>
		<path fill="#333333" d="M124.3,128.2h4.8v22h-4.8V128.2z"/>
		<path fill="#333333" d="M134,128.2h4.5l10.3,13.5v-13.5h4.8v22h-4.1l-10.7-14v14H134V128.2z"/>
		<path fill="#333333" d="M158.2,128.2h16.6v4.3H163v4.5h10.4v4.3H163v4.6h11.9v4.3h-16.7V128.2z"/>
		<path fill="#333333" d="M186.5,150.5c-1.7,0-3.3-0.3-4.9-0.9c-1.6-0.6-3.1-1.5-4.4-2.7l2.9-3.4c1,0.8,2,1.5,3.1,1.9
			c1.1,0.5,2.2,0.7,3.5,0.7c1,0,1.8-0.2,2.3-0.5c0.6-0.4,0.8-0.9,0.8-1.5v-0.1c0-0.3-0.1-0.6-0.2-0.8c-0.1-0.2-0.3-0.5-0.7-0.7
			c-0.3-0.2-0.8-0.4-1.4-0.6c-0.6-0.2-1.3-0.4-2.3-0.7c-1.1-0.3-2.1-0.6-3-0.9c-0.9-0.3-1.7-0.7-2.3-1.2c-0.6-0.5-1.1-1.1-1.5-1.8
			c-0.3-0.7-0.5-1.6-0.5-2.7v-0.1c0-1,0.2-1.9,0.6-2.7c0.4-0.8,0.9-1.5,1.6-2.1c0.7-0.6,1.5-1,2.4-1.4c0.9-0.3,2-0.5,3.1-0.5
			c1.6,0,3.1,0.2,4.4,0.7c1.4,0.5,2.6,1.2,3.7,2.1l-2.5,3.6c-1-0.7-1.9-1.2-2.9-1.6c-0.9-0.4-1.9-0.6-2.8-0.6
			c-0.9,0-1.7,0.2-2.1,0.5c-0.5,0.4-0.7,0.8-0.7,1.4v0.1c0,0.4,0.1,0.7,0.2,0.9c0.1,0.3,0.4,0.5,0.7,0.7c0.4,0.2,0.8,0.4,1.5,0.6
			c0.6,0.2,1.4,0.4,2.3,0.7c1.1,0.3,2.1,0.6,3,1c0.9,0.4,1.6,0.8,2.2,1.3c0.6,0.5,1,1.1,1.4,1.8c0.3,0.7,0.5,1.5,0.5,2.5v0.1
			c0,1.1-0.2,2.1-0.6,2.9c-0.4,0.8-0.9,1.6-1.7,2.1c-0.7,0.6-1.6,1-2.5,1.3C188.8,150.3,187.7,150.5,186.5,150.5z"/>
	</g>
</g>
</svg>
