<?xml version="1.0" encoding="utf-8"?>
<!-- Generator: Adobe Illustrator 18.0.0, SVG Export Plug-In . SVG Version: 6.00 Build 0)  -->
<!DOCTYPE svg PUBLIC "-//W3C//DTD SVG 1.1//EN" "http://www.w3.org/Graphics/SVG/1.1/DTD/svg11.dtd">
<svg version="1.1" id="Layer_1" xmlns="http://www.w3.org/2000/svg" xmlns:xlink="http://www.w3.org/1999/xlink" x="0px" y="0px"
	 viewBox="0 0 768 1280" enable-background="new 0 0 768 1280" xml:space="preserve">
<g transform="scale(1 -1) translate(0 -1280)">
	<path fill="#333333" d="M464,128c0,22-7.8,40.8-23.5,56.5S406,208,384,208s-40.8-7.8-56.5-23.5S304,150,304,128s7.8-40.8,23.5-56.5
		S362,48,384,48s40.8,7.8,56.5,23.5S464,106,464,128z M672,288v704c0,8.7-3.2,16.2-9.5,22.5s-13.8,9.5-22.5,9.5H128
		c-8.7,0-16.2-3.2-22.5-9.5S96,1000.7,96,992V288c0-8.7,3.2-16.2,9.5-22.5s13.8-9.5,22.5-9.5h512c8.7,0,16.2,3.2,22.5,9.5
		S672,279.3,672,288z M480,1136c0,10.7-5.3,16-16,16H304c-10.7,0-16-5.3-16-16s5.3-16,16-16h160C474.7,1120,480,1125.3,480,1136z
		 M768,1152V128c0-34.7-12.7-64.7-38-90S674.7,0,640,0H128C93.3,0,63.3,12.7,38,38S0,93.3,0,128v1024c0,34.7,12.7,64.7,38,90
		s55.3,38,90,38h512c34.7,0,64.7-12.7,90-38S768,1186.7,768,1152z"/>
</g>
</svg>
