<?xml version="1.0" encoding="utf-8"?>
<!-- Generator: Adobe Illustrator 18.0.0, SVG Export Plug-In . SVG Version: 6.00 Build 0)  -->
<!DOCTYPE svg PUBLIC "-//W3C//DTD SVG 1.1//EN" "http://www.w3.org/Graphics/SVG/1.1/DTD/svg11.dtd">
<svg version="1.1" id="Layer_1" xmlns="http://www.w3.org/2000/svg" xmlns:xlink="http://www.w3.org/1999/xlink" x="0px" y="0px"
	 viewBox="0 0 435.2 105.6" enable-background="new 0 0 435.2 105.6" xml:space="preserve">
<g>
	<g>
		<path fill="#333333" d="M11.4,0h177.7c0,1.3,0.1,2.3,0,3.6H11.4V0"/>
		<path fill-rule="evenodd" clip-rule="evenodd" fill="#333333" d="M0,5.6h200.6v0.7l-11.1,11.9H186v49.4h-1.1v-43l-0.3-0.7l-4,3.7
			c0,0-0.4-0.5-0.3-2h-3.1v42.4h-8.6V27.5h-3.4l0-9.3c0,0-3.5,0.1-4.3,0v70.9h-6.3V78.2H150v10.9h-6.9V77.8h-2.9v11.3h-0.6V73.8h18
			l0-6h-3.2V27.5H150v40.3h-7.1V27.5h-2.6v40.3h-0.6V18.2h-3.4v70.9h-21.1V73.8h18.6v-6h-3.1V27.5H126v40.3h-6.3V28l-3.1,0v39.9
			h-1.4v-49c-1.4-0.1-3.7,0-3.7,0v70.2H88.3V18.2h-3.7v49.5h-1.4V27.4c0,0-2,0.1-3.1,0v40.4h-5.7v-40c-2-0.1-3.2-0.1-5.1,0v40H66
			c-0.2,3,0.1,4.5,0,6h18.9v15.2H63.7V18.5H60v49h-0.3V27.1h-2.8v40.4H50V27.8h-4.9v39.7c-0.2,0-3.4,0-3.4,0v5.7h18.6v15.9h-0.6
			V78.2c0,0-2.5,0.1-2.8,0v10.8h-6.6V78.2c-1.9-0.1-3,0-4.9,0v10.9h-6.3V18.5l-4,0v8.6h-3.7v40.4h-8.3V25.8c-0.6,0-2.4,0-3.4,0v1.7
			c-1.4-1.1-2.2-2-4-3.3v43.4h-0.9v-44l0-5.7c0,0-2.6,0.2-3.8,0.1L0,6V5.6 M92.9,27.5v40.3c-0.9-0.1-0.9,0-2,0v5.7h18v-5.8h-2V27.5
			h-4v40.3h-6V27.5H92.9"/>
		<polyline fill="#333333" points="14.9,73.8 15.7,73.8 15.7,89.1 14.9,89.1 14.9,73.8 		"/>
		<path fill="#333333" d="M35.4,73.8v4.3h-3.7v10.9h-8.3c0-5,0-12.9,0-12.9l-6.3-2.4H35.4"/>
		<polyline fill="#333333" points="164.9,73.8 183.4,73.8 177.3,78.2 177.2,89.1 168.6,89.1 168.6,77.8 164.9,77.8 164.9,73.8 		"/>
		<polyline fill="#333333" points="184.9,73.8 186,73.8 186,89.1 184.9,89.1 184.9,73.8 		"/>
		<polyline fill="#333333" points="193.7,91.7 193.7,93 6.9,93 6.9,91.7 193.7,91.7 		"/>
		<polyline fill="#333333" points="4.9,96 196,96 196,97.3 4.9,97.3 4.9,96 		"/>
		<polyline fill="#333333" points="2.9,100.3 198.3,100.3 198.3,101.6 2.9,101.6 2.9,100.3 		"/>
		<polyline fill="#333333" points="0.6,104.6 200.3,104.6 200.3,105.6 0.6,105.6 0.6,104.6 		"/>
	</g>
	<path fill="#333333" d="M238.6,29.9V9.4c0-2.4-0.7-2.8-3.3-2.8l-0.7,0V5.4c1.7,0.1,3.3,0.2,5,0.2c1.7,0,3.3-0.1,4.9-0.2v1.2l-0.7,0
		c-2.6,0-3.4,0.4-3.4,2.8v23.9l0.1,1.5l-3.3-0.6L217.5,10v20.1c0,2.4,0.8,2.8,3.4,2.8l0.7,0v1.2c-1.6-0.1-3.3-0.2-4.9-0.2
		c-1.7,0-3.3,0.1-5,0.2V33l0.7,0c2.5,0,3.3-0.4,3.3-2.8V9.4c0-2.4-0.7-2.8-3-2.8H212V5.4c1.2,0.1,2.3,0.2,3.6,0.2
		c1.2,0,2.4-0.1,3.6-0.2L238.6,29.9z"/>
	<path fill="#333333" d="M269.7,28.6c0.5,1.3,1.1,2.7,2.1,3.7c0.5,0.4,1.3,0.7,2.3,0.7v1.2c-1.8-0.1-3.6-0.2-5.5-0.2
		c-1.9,0-3.7,0.1-5.5,0.2V33c1.1,0,2.2-0.1,3.1-0.6c0.6-0.3,0.6-0.9,0.3-1.7l-2.5-6h-11.7c-0.5,1.1-2.8,6-2.8,6.9
		c0,1.4,2,1.2,3.5,1.4v1.2c-1.6-0.1-3.1-0.2-4.7-0.2c-1.6,0-3.2,0.1-4.8,0.2V33c2.3-0.5,2.6-0.1,3.6-2.2l2-4.2l5.6-12.5
		c1.3-2.9,2.7-5.9,3.8-8.9h1.3L269.7,28.6z M263.2,22.9l-5.2-12.3l-5.2,12.3H263.2z"/>
	<path fill="#333333" d="M282.6,11.6c0-1.6,0-2.9-0.2-4.1l-6.4,0.2c-0.9,0-1.4,0.2-1.4,1.2c-0.2,1-0.4,2.1-0.5,3.2h-1.2
		c0-0.8,0-1.5,0-2.3c0-1.4-0.1-2.9-0.2-4.4c3.9,0.1,7.8,0.2,11.9,0.2c4,0,7.9-0.1,11.9-0.2c-0.1,1.5-0.2,3-0.2,4.4
		c0,0.8,0,1.5,0,2.3H295c0-1.1-0.3-2.2-0.5-3.2c-0.1-1.1-0.6-1.2-1.4-1.2l-6.4-0.2c-0.1,1.2-0.1,2.6-0.2,4.1v17.7
		c0,3.2,0,3.5,3.9,3.7v1.2c-2-0.1-3.9-0.2-5.9-0.2c-2,0-4,0.1-5.8,0.2V33c4-0.2,3.9-0.5,3.9-3.7V11.6z"/>
	<path fill="#333333" d="M307.1,29.3c0,3.2,0,3.5,3.9,3.7v1.2c-2-0.1-3.9-0.2-5.9-0.2c-2,0-4,0.1-5.8,0.2V33c4-0.2,3.9-0.5,3.9-3.7
		V10.3c0-3.2,0-3.5-3.9-3.7V5.4c1.9,0.1,3.8,0.2,5.8,0.2c2,0,4-0.1,5.9-0.2v1.2c-4,0.2-3.9,0.5-3.9,3.7V29.3z"/>
	<path fill="#333333" d="M344.6,18.9c0,8.9-6.9,16-16,16c-8.4,0-14.7-5.8-14.7-15.2c0-8.4,5.9-15,15.5-14.9
		C338.3,4.7,344.6,9.7,344.6,18.9z M340.2,20.1c0-8.2-3.7-13.6-11.4-13.6c-7.2,0-10.5,5-10.5,11.8c0,7.2,3.4,14.8,11.6,14.8
		C336.9,32.6,340.2,27.7,340.2,20.1z"/>
	<path fill="#333333" d="M373,29.9V9.4c0-2.4-0.7-2.8-3.3-2.8l-0.7,0V5.4c1.7,0.1,3.3,0.2,5,0.2c1.7,0,3.3-0.1,4.9-0.2v1.2l-0.7,0
		c-2.6,0-3.4,0.4-3.4,2.8v23.9l0.1,1.5l-3.3-0.6l-20-24.2v20.1c0,2.4,0.8,2.8,3.4,2.8l0.7,0v1.2c-1.6-0.1-3.3-0.2-4.9-0.2
		c-1.7,0-3.3,0.1-5,0.2V33l0.7,0c2.5,0,3.3-0.4,3.3-2.8V9.4c0-2.4-0.7-2.8-3-2.8h-0.6V5.4c1.2,0.1,2.3,0.2,3.6,0.2
		c1.2,0,2.3-0.1,3.5-0.2L373,29.9z"/>
	<path fill="#333333" d="M405.7,28.6c0.5,1.3,1.1,2.7,2.1,3.7c0.5,0.4,1.3,0.7,2.3,0.7v1.2c-1.8-0.1-3.6-0.2-5.5-0.2
		c-1.9,0-3.7,0.1-5.5,0.2V33c1.1,0,2.2-0.1,3.1-0.6c0.6-0.3,0.6-0.9,0.3-1.7l-2.5-6h-11.7c-0.5,1.1-2.8,6-2.8,6.9
		c0,1.4,2,1.2,3.5,1.4v1.2c-1.6-0.1-3.1-0.2-4.7-0.2c-1.6,0-3.2,0.1-4.7,0.2V33c2.3-0.5,2.6-0.1,3.6-2.2l2-4.2l5.6-12.5
		c1.3-2.9,2.7-5.9,3.8-8.9h1.3L405.7,28.6z M399.2,22.9l-5.2-12.3l-5.2,12.3H399.2z"/>
	<path fill="#333333" d="M419.9,30.6l0.1,1.5c1.7,0.2,3.8,0.2,5.8,0.2c2.2,0,4.5-0.1,6.7-0.7c0.2-0.4,0.3-0.8,0.4-1.3l0.9-3.5
		l1.3,0.1c-0.1,0.6-0.3,1.7-0.4,2.8l-0.5,4.3c-1.3,0.2-4,0.2-6.4,0.2c-2.3-0.1-4.7-0.2-7.1-0.2c-2.4,0-4.7,0.1-7.1,0.2V33
		c1.9-0.3,2.2-1.5,2.2-4.8V10.3c0-3.2,0-3.5-3.9-3.7V5.4c1.8,0.1,3.8,0.2,5.8,0.2c2,0,4-0.1,5.9-0.2v1.2c-4,0.2-3.9,0.5-3.9,3.7
		V30.6z"/>
	<path fill="#333333" d="M221,72.3l0.1,1.8c2.1,0.2,4.6,0.2,6.9,0.2c2.7,0,5.4-0.1,7.9-0.8c0.2-0.5,0.3-1,0.5-1.6l1.1-4.1l1.6,0.1
		c-0.1,0.7-0.3,2-0.5,3.3l-0.5,5.2c-1.6,0.2-4.7,0.2-7.6,0.2c-2.7-0.2-5.5-0.2-8.4-0.2c-2.9,0-5.6,0.1-8.5,0.2v-1.5
		c2.3-0.4,2.7-1.8,2.7-5.7V48.2c0-3.8,0-4.2-4.7-4.4v-1.5c2.2,0.2,4.5,0.2,6.9,0.2c2.4,0,4.7-0.1,7.1-0.2v1.5
		c-4.7,0.2-4.7,0.6-4.7,4.4V72.3z"/>
	<path fill="#333333" d="M254,70.7c0,3.8-0.1,4.2,4.7,4.4v1.5c-2.4-0.2-4.7-0.2-7.1-0.2c-2.4,0-4.7,0.1-6.9,0.2v-1.5
		c4.7-0.2,4.7-0.6,4.7-4.4V48.2c0-3.8,0.1-4.2-4.7-4.4v-1.5c2.2,0.2,4.5,0.2,6.9,0.2c2.4,0,4.7-0.1,7.1-0.2v1.5
		c-4.7,0.2-4.7,0.6-4.7,4.4V70.7z"/>
	<path fill="#333333" d="M269.5,48.2c0-4.1-0.9-4.3-4.3-4.4v-1.5c2.8,0.2,5.6,0.2,8.4,0.2c2.9,0,5.6-0.1,8.4-0.2
		c4.6,0,8.7,1.7,8.7,6.9c0,4.5-4.2,7.4-8.2,8c5,0.2,9.9,2.3,9.9,8c0,6.6-6.7,12-14.5,11.4c-1.8-0.2-3.5-0.2-5.3-0.2
		c-1.8,0-3.6,0.1-5.4,0.2v-1.5c2.1-0.5,2.4-1.6,2.4-3.4V48.2z M274.2,56.5c1.1,0.1,2.3,0.2,3.5,0.2c4.3-0.1,8.1-1.7,8.1-6.6
		c0-4.7-3.3-5.9-7.4-5.9c-1.3,0-2.8,0.2-3.9,0.6c-0.2,1.1-0.2,2.4-0.2,3.6V56.5z M274.2,74.1c1.2,0.2,2.6,0.4,4.4,0.4
		c5.2,0,8.6-3.2,8.6-8.5c0-5.4-3.4-7.5-9.7-7.5h-3.3V74.1z"/>
	<path fill="#333333" d="M301.8,48.2c0-3.8,0.1-4.2-4.7-4.4v-1.5c2.8,0.2,5.6,0.2,8.5,0.2s5.7-0.1,8.6-0.2c6.8-0.3,9.9,3.3,9.9,7.5
		c0,5.4-4.8,8.6-9.6,9.5l11.2,14.5c0.8,0.9,1.8,1.2,2.8,1.4v1.5c-1.1-0.2-2.2-0.2-3.3-0.2c-1.1,0-2.2,0.1-3.3,0.2
		c-0.8-1-1.3-1.9-2-2.8l-11.7-15l0.2-0.7c1.5,0.1,3,0,4.5-0.2c3.4-0.6,6.4-3.2,6.4-6.9c0-5.3-3.9-6.9-7.6-6.9
		c-1.7,0-3.6,0.2-4.9,0.6c-0.3,0.8-0.3,1.9-0.3,3.4v22.6c0,3.8-0.1,4.2,4.7,4.4v1.5c-2.4-0.2-4.7-0.2-7.1-0.2
		c-2.4,0-4.7,0.1-6.9,0.2v-1.5c4.7-0.2,4.7-0.6,4.7-4.4V48.2z"/>
	<path fill="#333333" d="M361.6,69.9c0.6,1.6,1.3,3.2,2.5,4.4c0.5,0.5,1.6,0.8,2.7,0.8v1.5c-2.2-0.2-4.3-0.2-6.5-0.2
		c-2.2,0-4.4,0.1-6.5,0.2v-1.5c1.3,0,2.6-0.1,3.7-0.7c0.7-0.3,0.7-1.1,0.3-2l-3-7.2h-14c-0.6,1.3-3.3,7.2-3.3,8.3
		c0,1.6,2.4,1.4,4.2,1.6v1.5c-1.9-0.2-3.7-0.2-5.7-0.2c-1.9,0-3.8,0.1-5.7,0.2v-1.5c2.8-0.5,3.1-0.1,4.3-2.7l2.4-5.1l6.6-14.8
		c1.6-3.5,3.2-7.1,4.5-10.6h1.6L361.6,69.9z M353.9,63.2l-6.1-14.6l-6.1,14.6H353.9z"/>
	<path fill="#333333" d="M375.8,48.2c0-3.8,0.1-4.2-4.7-4.4v-1.5c2.7,0.2,5.6,0.2,8.5,0.2c2.9,0,5.7-0.1,8.6-0.2
		c6.8-0.3,9.9,3.3,9.9,7.5c0,5.4-4.8,8.6-9.6,9.5l11.2,14.5c0.8,0.9,1.8,1.2,2.8,1.4v1.5c-1.1-0.2-2.2-0.2-3.3-0.2
		c-1.1,0-2.2,0.1-3.3,0.2c-0.8-1-1.3-1.9-2-2.8l-11.7-15l0.2-0.7c1.5,0.1,3,0,4.5-0.2c3.4-0.6,6.4-3.2,6.4-6.9
		c0-5.3-3.9-6.9-7.6-6.9c-1.7,0-3.6,0.2-4.9,0.6c-0.3,0.8-0.3,1.9-0.3,3.4v22.6c0,3.8,0,4.2,4.7,4.4v1.5c-2.4-0.2-4.7-0.2-7.1-0.2
		c-2.4,0-4.7,0.1-6.9,0.2v-1.5c4.7-0.2,4.7-0.6,4.7-4.4V48.2z"/>
	<path fill="#333333" d="M419.8,59.6l5.1-8c1.9-3.1,3.7-6.2,5.3-9.3h3.9V43c-4.1,4.8-10.1,13.1-12.1,17.4c-0.6,1.3-0.7,2.5-0.7,3.7
		v6.6c0,3.8-0.1,4.2,4.7,4.4v1.5c-2.3-0.2-4.7-0.2-7.1-0.2c-2.4,0-4.7,0.1-6.9,0.2v-1.5c4.7-0.2,4.7-0.6,4.7-4.4v-7.2
		c0-0.4,0-1-0.3-1.5l-5.9-10.3c-1.6-2.8-4.6-7.6-8.1-7.2V43l5.2-1c1.4-0.2,2.2,0.6,3,1.6c0.8,1,1.5,2.1,2.2,3.2L419.8,59.6z"/>
	<path fill="#333333" d="M233.2,94.9c0,5.9-4.6,10.6-10.6,10.6c-5.6,0-9.8-3.9-9.8-10.1c0-5.6,4-10,10.3-9.9
		C229,85.5,233.2,88.8,233.2,94.9z M230.3,95.7c0-5.4-2.5-9.1-7.6-9.1c-4.8,0-7,3.3-7,7.9c0,4.8,2.3,9.9,7.7,9.9
		C228,104,230.3,100.8,230.3,95.7z"/>
	<path fill="#333333" d="M238.8,89.2c0-2.1,0-2.3-2.6-2.5v-0.8c1.7,0.1,3.3,0.1,5,0.1c1.7,0,3.4-0.1,5-0.1c1.7,0,3.6,0,4.6,0.1
		c-0.3,0.9-0.4,1.8-0.4,2.7c0,0.6-0.1,1-0.1,1.6h-0.9c0-1.1-0.2-1.9-0.4-2.7c-1.3-0.4-2.7-0.5-4.1-0.5c-1.2,0-2.5,0-3.4,0.1
		c-0.1,0.5-0.1,1-0.1,1.8v5.6c6,0.1,6.4,0.4,6.4-2.3h0.9v6.4h-0.9c0-3.1-0.2-2.9-6.4-2.7v5.8c0,2.1,0,2.3,2.6,2.5v0.8
		c-1.3-0.1-2.6-0.1-4-0.1c-1.4,0-2.6,0-3.9,0.1v-0.8c2.6-0.1,2.6-0.3,2.6-2.5V89.2z"/>
	<path fill="#333333" d="M278.8,101.4c0.4,0.9,0.7,1.8,1.4,2.4c0.3,0.3,0.9,0.4,1.5,0.5v0.8c-1.2-0.1-2.4-0.1-3.7-0.1
		c-1.2,0-2.4,0-3.6,0.1v-0.8c0.7,0,1.5,0,2.1-0.4c0.4-0.2,0.4-0.7,0.2-1.1l-1.7-4h-7.8c-0.3,0.7-1.8,4-1.8,4.6
		c0,0.9,1.3,0.8,2.3,0.9v0.8c-1.1-0.1-2.1-0.1-3.2-0.1c-1.1,0-2.1,0-3.2,0.1v-0.8c1.5-0.3,1.7,0,2.4-1.5l1.3-2.8l3.7-8.3
		c0.9-2,1.8-4,2.5-5.9h0.9L278.8,101.4z M274.5,97.6l-3.4-8.2l-3.4,8.2H274.5z"/>
	<path fill="#333333" d="M287.7,98.8c-0.2,3.9,2,5,5.6,5c1.7,0,3.7-0.4,4.7-1.9c0.8-1.2,1.1-2.9,1.1-4.6v-8.7c0-1.6-0.5-1.8-2.2-1.8
		l-0.4,0v-0.8c1.1,0.1,2.2,0.1,3.3,0.1c1.1,0,2.2-0.1,3.3-0.1v0.8l-0.4,0c-1.7,0-2.3,0.2-2.3,1.8v10.1c0,1.5-0.4,2.7-1.2,4
		c-0.5,0.9-1.9,1.9-2.9,2.2c-1,0.4-2.6,0.6-3.7,0.6c-2.5,0-5.5-0.4-6.8-2.8c-0.7-1.2-0.7-2.2-0.7-3.6v-9.9c0-2.1,0-2.3-2.6-2.5v-0.8
		c1.2,0.1,2.5,0.1,3.9,0.1c1.3,0,2.6-0.1,4-0.1v0.8c-2.6,0.1-2.6,0.3-2.6,2.5V98.8z"/>
	<path fill="#333333" d="M316.4,90.5c0-1,0-1.8-0.3-2.2c-0.7-1.2-2.7-1.6-4-1.6c-2.3,0-4.2,1.6-4.2,3.9c0,6,10.9,1,10.9,7.9
		c0,4.7-4.2,7-8.3,7c-1.6,0-3.2-0.4-4.7-1c0.1-1,0.2-2.4,0.2-3.4v-0.8h0.9v1.3c0,0.6,0.1,1.1,0.4,1.4c1.1,1,2.9,1.3,4.3,1.3
		c2.5,0,4.9-1.5,4.9-4.2c0-6.7-10.9-0.4-10.9-8.5c0-3.8,3.2-6.2,6.7-6.2c1.9,0,3.6,0.6,5.3,1.3c-0.1,0.4-0.2,0.9-0.2,1.3
		c-0.1,0.8-0.2,1.6-0.2,2.4H316.4z"/>
	<path fill="#333333" d="M328.3,90c0-1.1,0-1.9-0.1-2.7l-4.2,0.1c-0.6,0-0.9,0.1-1,0.8c-0.1,0.7-0.3,1.4-0.3,2.1h-0.8
		c0-0.5,0-1,0-1.5c0-1,0-1.9-0.1-2.9c2.6,0.1,5.2,0.1,7.9,0.1c2.7,0,5.3-0.1,8-0.1c-0.1,1-0.1,2-0.1,2.9c0,0.5,0,1,0,1.5h-0.8
		c0-0.7-0.2-1.5-0.3-2.1c0-0.7-0.4-0.8-1-0.8l-4.3-0.1c-0.1,0.8-0.1,1.7-0.1,2.7v11.8c0,2.1,0,2.3,2.6,2.5v0.8
		c-1.3-0.1-2.6-0.1-4-0.1c-1.4,0-2.6,0-3.9,0.1v-0.8c2.6-0.1,2.6-0.3,2.6-2.5V90z"/>
	<path fill="#333333" d="M343,89.2c0-2.1,0-2.3-2.6-2.5v-0.8c1.5,0.1,3.1,0.1,4.8,0.1c1.6,0,3.2-0.1,4.8-0.1
		c3.8-0.2,5.6,1.9,5.6,4.2c0,3-2.7,4.8-5.4,5.3l6.2,8.1c0.4,0.5,1,0.7,1.6,0.8v0.8c-0.6-0.1-1.2-0.1-1.9-0.1c-0.6,0-1.2,0-1.9,0.1
		c-0.5-0.6-0.8-1.1-1.1-1.5l-6.6-8.4l0.1-0.4c0.8,0.1,1.7,0,2.5-0.1c1.9-0.3,3.6-1.8,3.6-3.8c0-3-2.2-3.9-4.2-3.9
		c-1,0-2,0.1-2.7,0.4c-0.2,0.5-0.2,1-0.2,1.9v12.6c0,2.1,0,2.3,2.6,2.5v0.8c-1.3-0.1-2.6-0.1-4-0.1c-1.4,0-2.6,0-3.9,0.1v-0.8
		c2.6-0.1,2.6-0.3,2.6-2.5V89.2z"/>
	<path fill="#333333" d="M377.6,101.4c0.4,0.9,0.7,1.8,1.4,2.4c0.3,0.3,0.9,0.4,1.5,0.5v0.8c-1.2-0.1-2.4-0.1-3.7-0.1
		c-1.2,0-2.4,0-3.7,0.1v-0.8c0.7,0,1.5,0,2.1-0.4c0.4-0.2,0.4-0.7,0.2-1.1l-1.7-4H366c-0.3,0.7-1.9,4-1.9,4.6c0,0.9,1.3,0.8,2.3,0.9
		v0.8c-1-0.1-2.1-0.1-3.2-0.1c-1.1,0-2.1,0-3.2,0.1v-0.8c1.5-0.3,1.7,0,2.4-1.5l1.4-2.8l3.7-8.3c0.9-2,1.8-4,2.5-5.9h0.9
		L377.6,101.4z M373.3,97.6l-3.4-8.2l-3.4,8.2H373.3z"/>
	<path fill="#333333" d="M388.8,102.7l0.1,1c1.2,0.2,2.6,0.2,3.9,0.2c1.5,0,3-0.1,4.4-0.5c0.1-0.3,0.2-0.6,0.3-0.9l0.6-2.3l0.9,0
		c-0.1,0.4-0.2,1.1-0.3,1.9l-0.3,2.9c-0.9,0.1-2.6,0.1-4.3,0.1c-1.5-0.1-3.1-0.1-4.7-0.1c-1.6,0-3.1,0-4.7,0.1v-0.8
		c1.3-0.2,1.5-1,1.5-3.2V89.2c0-2.1,0-2.3-2.6-2.5v-0.8c1.2,0.1,2.5,0.1,3.9,0.1c1.3,0,2.6-0.1,4-0.1v0.8c-2.6,0.1-2.6,0.3-2.6,2.5
		V102.7z"/>
	<path fill="#333333" d="M407.2,101.8c0,2.1,0,2.3,2.6,2.5v0.8c-1.3-0.1-2.6-0.1-4-0.1c-1.3,0-2.6,0-3.9,0.1v-0.8
		c2.6-0.1,2.6-0.3,2.6-2.5V89.2c0-2.1,0-2.3-2.6-2.5v-0.8c1.2,0.1,2.5,0.1,3.9,0.1c1.4,0,2.6-0.1,4-0.1v0.8
		c-2.6,0.1-2.6,0.3-2.6,2.5V101.8z"/>
	<path fill="#333333" d="M430.1,101.4c0.3,0.9,0.7,1.8,1.4,2.4c0.3,0.3,0.9,0.4,1.5,0.5v0.8c-1.2-0.1-2.4-0.1-3.7-0.1
		c-1.2,0-2.5,0-3.7,0.1v-0.8c0.7,0,1.5,0,2.1-0.4c0.4-0.2,0.4-0.7,0.2-1.1l-1.7-4h-7.8c-0.3,0.7-1.8,4-1.8,4.6
		c0,0.9,1.3,0.8,2.3,0.9v0.8c-1-0.1-2.1-0.1-3.2-0.1c-1.1,0-2.1,0-3.2,0.1v-0.8c1.5-0.3,1.7,0,2.4-1.5l1.3-2.8l3.7-8.3
		c0.9-2,1.8-4,2.5-5.9h0.9L430.1,101.4z M425.8,97.6l-3.4-8.2l-3.4,8.2H425.8z"/>
</g>
</svg>
