<?xml version="1.0" encoding="utf-8"?>
<!-- Generator: Adobe Illustrator 18.0.0, SVG Export Plug-In . SVG Version: 6.00 Build 0)  -->
<!DOCTYPE svg PUBLIC "-//W3C//DTD SVG 1.1//EN" "http://www.w3.org/Graphics/SVG/1.1/DTD/svg11.dtd">
<svg version="1.1" id="Logo" xmlns="http://www.w3.org/2000/svg" xmlns:xlink="http://www.w3.org/1999/xlink" x="0px" y="0px"
	 viewBox="0 0 1077.2 255.1" enable-background="new 0 0 1077.2 255.1" xml:space="preserve">
<g>
	<path fill="#333333" d="M923,108.5c-11-1.4-59-11.9-99.1,28.2c-32.7,32.7-71.3,70.1-71.3,70.1h43.9c0,0,5.3-5.4,16.3-16.7h45.7
		l-4,16.7h45.3L923,108.5z M864.3,165.3h-27.7c1.4-1.4,2.8-2.9,4.2-4.4c27.2-29.1,31.8-27,31.8-27L864.3,165.3z"/>
	<path fill="#333333" d="M516,108.5c-11-1.4-59-11.9-99,28.2c-32.7,32.7-71.3,70.1-71.3,70.1h43.9c0,0,5.3-5.4,16.3-16.7h45.7
		l-3.9,16.7h45.3L516,108.5z M457.4,165.3h-27.7c1.4-1.4,2.8-2.9,4.2-4.4c27.2-29.1,31.8-27,31.8-27L457.4,165.3z"/>
	<path fill="#333333" d="M675.5,107.6c-18.6,0-31.4,7.1-39.6,21.1l-15.8,28L598,107.6l-8.6,0c-18.6,0-37.4,13.1-46.4,28.4
		l-41.6,70.8h42.9l28.2-48.5l21.7,48.5h38.5l57.6-99.3L675.5,107.6z"/>
	<path fill="#333333" d="M329.2,105.4c-54.3,0-88.7,27.9-103.2,53.2c-14,24.2-0.5,53.8,51.9,51.5c0,0,10.6,13.7,32.4,14.5
		c21.8,0.8,35.3-17.6,35.3-17.6s-7.4,2.5-15.5,1.6c-10.1-1.2-13.5-6.9-13.5-6.9c28.8-12,45.2-27.1,54.4-43
		C385.6,133.3,383.5,105.4,329.2,105.4z M318.7,158.2c-11,16.5-23.4,28.4-38.9,27.6c-18.7-1-13.2-14.7-3.5-28
		c11.6-16,26.1-29.8,41.7-29.1C336.7,129.5,329.7,141.7,318.7,158.2z"/>
	<path fill="#333333" d="M725.9,107.6c-18.8,0-32.2,8.3-38,18.5l-4.8,8.3h42.8l-42.1,72.5h46.8l42-72.4l13-0.3
		c16.9,0,32.2-8.3,38-18.5l4.7-8L725.9,107.6z"/>
	<path fill="#333333" d="M995.2,139c33.7,9.4,48.5,17.8,46.7,33c-2.8,22.8-35.8,37.9-76.5,37.2c-40.6-0.7-59.5-14.7-59.5-14.7
		l25.1-20.7c0,0,17.7,9.4,41.8,9.8c15.4,0.3,17.3-3.4,17.6-4.5c1-3.1-3.3-4.4-14.1-8c-21.4-7.1-42.3-14-39.9-33.4
		c2.8-23.2,40.4-33.7,72.9-32.9c22.6,0.6,45.2,8.8,45.2,8.8c-9,16.1-24.4,18.1-30.1,18c-7.7-0.1-14-1.9-25.7-2.1
		c-9.6-0.2-12.6,3.8-11.1,6C989,137.2,990.7,137.7,995.2,139z"/>
</g>
<path fill="#333333" d="M13.9,15.2l0,58.5c0.1,1.8,0.4,5.4,1,7.4c9.8,30.7,65.3,18.6,101.5,70.3c0,0,6.9,0.8,11.5-7.6
	c0,0-9.6-0.7-10.2-8c0,0,19.6,3.9,31.5,13.5c0,0,0.2,4.3-13.6,4.3c-2.7,0.2-3.9,0.4-8.3,4.6c0,0-11,12-22.2,11.8
	c-3.4-0.1-6-1.4-6.2-2.4c0,0-0.5-1.4,2.1-0.9c0,0,6,1.6,8.8-1c0,0-2.5-3.7-7-3.6c-2.7-0.2-5.5,0.7-7.3,3.2c0,0-8.9,11.2,16.4,22.9
	c36.8,16.1,57.3,39.8,54.3,46c-3.6-2.6-33.5-39.8-85.1-44.1c0,0,0.3-0.8,0.5-1.8c5.4-25.8-6.6-43.2-20.2-53.2
	C47.9,124,21.8,114.9,13.9,90.4l0,150.9l245.8,0L13.9,15.2z"/>
</svg>
