<?xml version="1.0" encoding="utf-8"?>
<!-- Generator: Adobe Illustrator 18.0.0, SVG Export Plug-In . SVG Version: 6.00 Build 0)  -->
<!DOCTYPE svg PUBLIC "-//W3C//DTD SVG 1.1//EN" "http://www.w3.org/Graphics/SVG/1.1/DTD/svg11.dtd">
<svg version="1.1" id="Layer_1" xmlns="http://www.w3.org/2000/svg" xmlns:xlink="http://www.w3.org/1999/xlink" x="0px" y="0px"
	 viewBox="0 0 185 164.9" enable-background="new 0 0 185 164.9" xml:space="preserve">
<path fill="#333333" d="M177.7,36.1c-5.5,0.7-12.8,9-24.1,49.1c-1.2-1.9-3.9-5.2-11.3-5.2c-7.4,0-15.1,3.8-21.4,9.8
	c1-4,1.5-8.2,1.5-12.5c0-26.4-20-48.2-47.8-48.2c-13.4,0-24.9,5.1-33.3,13.2c-0.8-4.1-3.1-8.1-6.7-11.2l-7.4-6.2
	c-4.9-4.4-7.2-7.3-6.1-12c1-4.9,5.7-9.4,10.2-9.4c10.6,0,4.5,10.9,11.7,10.9c2.3,0,4.1-1.5,4.5-3.6C48,6.6,44.5,0,33.4,0
	C20,0,12.6,8.4,11.2,16.6c-1.2,5.8,2.1,12.6,6.7,16.6l7.4,6.4c2.9,2.4,7,7.8,5.9,12.7c-0.6,4-5.1,10.1-11,10.1
	c-13.9,0-6.7-12.1-14.3-12.1c-2.9,0-5.1,1.5-5.7,4.2c-1,4.9,4.9,12.4,17.6,12.4c3.5,0,7.3-0.8,10.7-2.5c-1.1,4.1-1.7,8.5-1.7,13
	c0,23.2,13.8,42.1,37.9,47.5c-13.5,3.7-25.1,14.7-25.1,18.9c0,4.2,2.9,6.8,6.4,6.2c5.2-0.6,3.7-13,17.6-13c14.3,0,29.5,28,47.9,28
	c16.8,0,27.8-15.8,32.8-27.8c0.9,3.4,3.1,5.6,7.1,5.6c3.1,0,7.3-2.1,10-5.1c2.6-3,0.5-3.9-0.6-3.4c-1.1,0.6-3,2.3-4.9,2.3
	c-2.4,0-8.2,3,4.4-47.7c12.7-51.3,20.5-34.6,24.4-45.7C186.1,39.3,182.5,35.5,177.7,36.1z M40.7,77.3C40.7,59.4,50,34,74.5,34
	c24.5,0,34,25.4,34,43.3c0,18-9.5,43.3-34,43.3C50,120.5,40.7,95.3,40.7,77.3z M114.1,149.9c-17.6,0-30.9-19.3-53.8-17
	c4.8-3.7,16.2-7.1,19.3-7.5c11.5-1.3,21.4-6.2,28.8-13.5c-3.1,17.3,4.5,31.7,18.9,31.9c4.6,0.1,10.1-3,14.4-7
	C137.2,145.5,125.6,149.9,114.1,149.9z M150.8,98.4c-1.7,8.9-4.6,22.1-4.6,22.1c-1.8,9.3-8.3,16.6-14.9,16.5
	c-9.8-0.1-12.3-11.9-9.5-25.7c2.6-13.8,10-25.4,20.2-25.8C147.6,85.3,152.5,89.5,150.8,98.4z"/>
</svg>
