<?xml version="1.0" encoding="utf-8"?>
<!-- Generator: Adobe Illustrator 18.0.0, SVG Export Plug-In . SVG Version: 6.00 Build 0)  -->
<!DOCTYPE svg PUBLIC "-//W3C//DTD SVG 1.1//EN" "http://www.w3.org/Graphics/SVG/1.1/DTD/svg11.dtd">
<svg version="1.1" id="Layer_1" xmlns="http://www.w3.org/2000/svg" xmlns:xlink="http://www.w3.org/1999/xlink" x="0px" y="0px"
	 viewBox="0 0 398 398" enable-background="new 0 0 398 398" xml:space="preserve">
<path fill-rule="evenodd" clip-rule="evenodd" fill="#333333" d="M388,0H10C4.5,0,0,4.5,0,10v378c0,5.5,4.5,10,10,10h378
	c5.5,0,10-4.5,10-10V10C398,4.5,393.5,0,388,0z M221.5,345.5c-32.2-4.1-83,7.4-108-2c-25-9.4-32.7-23.3-35.2-33.8
	c17.8-11.7,32.2-32.3,33.6-34.4c1.5-2.3-20.1,14.5-22.4,15.3c-1.9,0.6-13.4-4.4-17.4-6.1c-1.4-1.1-0.4-2.9-0.4-2.9
	c1.9-4.5,6.6-14.8,17.2-25.4c10.3-10.4,27.6-20,27.6-20l-15.7,3.1c0,0,3.9-14.8,17.2-25.4c5.4-4.3,14.7-0.6,14.7-0.6
	s8.7,7.8,22.9,8.7c9.3,0.6,31.1-4,31.1-4s-1.9,6.7,0.4,10.5c2.3,3.8,12.2,16.1,8.4,23c-3.8,6.9-30,26.9-31.5,29.2
	c-1.5,2.3,15.8-6.8,16.6,0.8c0.8,7.7-9.5,19.9-6.6,28.1c1.7,4.7,23.6,13.1,32.6,21.3c6.8,6.2,16.4,14,16.4,14
	S222.5,345.3,221.5,345.5z M225.2,334.6c-4.7-0.9-14-11.7-24.5-16.4c-10.5-4.7-17.5-8.2-17.5-14c0-5.9,7-10.5,9.4-16.4
	c2.3-5.8,10.5-38.6,15.2-49.1c4.7-10.5,22.2-18.7,22.2-18.7s-26.5-7.4-39.4-7.4c-1.7,0,3.1-0.6,5-1c6.2-1.5,11.8-4.7,11.8-4.7
	s-55.8,14.4-69.8-3.2c-8.3-10.4-9.8-33.5-2.7-41.9c1.1-1.2,7.3-8.6,7.8-11.9c0.5-3.2-5.4-5.7-4.6-9.4c1-4.6,1.9-9.1,4.2-19.8
	c1.6-7.4,9.3-18.3,12.7-25.1c2.5,0.1,6,0.2,8.4-0.2c4.2-0.8,15.5-5.2,17.5-3.2c3.1,3.1,0.2,19.5,6,25.6c2.8,3,21.5,11.4,21.5,11.4
	s-2-3.1-5.4-5.7c-3.4-2.6-8.1-4.7-10-6.3c-2.4-2.1-3.8-9.5-4.2-14.2c-0.8-9.6-0.3-14.5-3-17.2c-2.7-2.7-11.5,0.7-20,2.6
	c-3.9,0.9-10,0.8-10.7,0.8c-7,0-12.2-4.2-12.2-4.2s-3.9,8.8-8.6,20.5c-4.7,11.7-10.5,15.2-10.5,22.2c0,7,15.2,18.7,14,22.2
	c-1.2,3.5-6.4,12.4-11.7,12.9c-5.3,0.4-12.2-12.3-15.8-23.4c-3.8-11.9-0.4-30.2,1.9-42.5c2.2-11.5,4.6-28.7,8-32.3
	c3.4-3.5,9.4-3.5,30.4-8.2c21-4.7,25.2-0.6,33.8-1.1c5.9-0.4,7.2-2.4,14.2-1.2c7,1.2,8.1,5.4,18.6,7.7c10.5,2.3,10.6,4,23.5,6.3
	c4.9,0.9,7.1,2.7,9,6c-3.7,1.8-8.6,5.5-5.2,5.1c2.8-0.3,10-0.5,16-4.3c4.9-3.2,24.5-18.9,36.1-13.6c11.5,5.3,17.5,25.1,13.9,35.8
	c-6.5,18.9-23.5,20.5-25.4,19.9c-1.4,0-1.5-2.1-2.7-2.1c-1.9,0-3.7,6.9-6.8,7.4c-1.5-0.1-2-3.6-3.3-4.7s-3.2-0.6-3.2-0.6l-7.1,1.3
	c0,0.1-5,1.3-6.9-1.3c-2-2.6-7.8-10.6-7.8-10.6s1.5,15.2,3.9,16.4c4.2,2.1,12.4-1,12.4-1c1.4,2.5,5,9.2,6.4,16.5
	c3,15.5-1.4,30.2-1.4,30.2s6.1-5.7,10.8-11.5c4.7-5.8,8.2-7,10.5-12.9c2.3-5.8-1.5-13.4,0.6-17.9c2.1-4.4,14.2-8.3,14.2-8.3
	s10.9,6.8-11.2,48.4c-8.4,15.7-23,33.5-26.9,31.6c-3.8-2-16.4-23.4-18.7-32.7c-2.3-9.3-4.7-22.2-4.7-25.7c0-3.5-4.5-5.2-16.1-1.7
	c-11.7,3.5-14.2-1.8-14.2-1.8s-9.8,2.1-15.2,11.7c-7.2,12.9-21.8,9.5-23.7,9.4c-2.7-0.1-4.9,1.3-4.9,1.3s2,0.4,6.6,0.7
	c2.8,0.2,9.1,1.4,9.1,1.4s10.5,3.5,31.5,8.2c21,4.7,57,29.1,52.6,42.1c-3.4,10-43.2,50.3-47.9,58.4c-4.7,8.2-10.5,21-10.5,28.1
	c0,7,26.9,35.1,26.9,35.1S229.9,335.5,225.2,334.6z M312.4,344.1c-3.7,3.3-29.2-1.5-35.1-0.7c-5.9,0.9-12.6,3.7-17.6,0.3
	c-4.9-3.5,0.6-11.7-1.4-18.8c-2-7.1-17.3-26.7-19-38.5c-1.7-11.8-3.3-26.7-3.3-26.7c9.3-8.4,20.3-22.7,24.1-27.2
	c3.7-4.5,5.9,15.5,6.6,23.7c0.7,8.2-2.7,29.1,2.5,42.3c5.2,13.1,7.7,32,25,36.4C311.5,339.4,316.1,340.8,312.4,344.1z"/>
</svg>
