<?xml version="1.0" encoding="utf-8"?>
<!-- Generator: Adobe Illustrator 18.0.0, SVG Export Plug-In . SVG Version: 6.00 Build 0)  -->
<!DOCTYPE svg PUBLIC "-//W3C//DTD SVG 1.1//EN" "http://www.w3.org/Graphics/SVG/1.1/DTD/svg11.dtd">
<svg version="1.1" id="Layer_1" xmlns="http://www.w3.org/2000/svg" xmlns:xlink="http://www.w3.org/1999/xlink" x="0px" y="0px"
	 viewBox="0 0 353.7 53.7" enable-background="new 0 0 353.7 53.7" xml:space="preserve">
<path fill="#333333" d="M196.4,9.7h-7v7h-4.6v6.1h4.6v9.9c0,7.6,3.2,11.2,10.2,11.2h4.3v-6.3h-3.7c-2.7,0-3.8-0.5-3.8-5.4v-9.4h8.3
	v-6.1h-8.3V9.7z"/>
<path fill="#333333" d="M206.7,28.7V44h7V29.3c0-5.3,1-6.2,3.7-6.2h6.2v-6.3h-6.4C210.2,16.8,206.7,20.8,206.7,28.7z"/>
<rect x="225.8" y="9.4" fill="#333333" width="7.2" height="5.2"/>
<rect x="225.9" y="16.8" fill="#333333" width="7" height="27.2"/>
<path fill="#333333" d="M254.2,16.8h-6.4c-6.9,0-10.4,4-10.4,11.9V44h7V29.3c0-5.3,1-6.2,3.7-6.2h6.2V16.8z"/>
<path fill="#333333" d="M268.9,16.8h-12.5V23h12.1c2.4,0,3.2,0.8,3.5,3.7h-8.4c-8.2,0-9.9,4.7-9.9,8.6c0,5.6,3.5,8.7,9.9,8.7h15.5
	V28.6C279.1,21,275.5,16.8,268.9,16.8z M263.8,37.8c-2.5,0-3.1-1-3.1-2.6c0-1.9,0.8-2.6,3.1-2.6h8.2v5.1H263.8z"/>
<path fill="#333333" d="M299.8,16.8h-6.2c-8.1,0-12.5,4.8-12.5,13.4c0,8.8,4.6,13.8,12.5,13.8h13.2V4.5h-7V16.8z M299.8,37.9h-5.6
	c-3.8,0-6-1.3-6-7.7c0-6.2,2-7.4,6-7.4h5.6V37.9z"/>
<path fill="#333333" d="M324.5,16.8h-12.5V23H324c2.4,0,3.2,0.8,3.5,3.7H319c-8.2,0-9.9,4.7-9.9,8.6c0,5.6,3.5,8.7,9.9,8.7h15.5
	V28.6C334.6,21,331,16.8,324.5,16.8z M319.4,37.8c-2.5,0-3.1-1-3.1-2.6c0-1.9,0.8-2.6,3.1-2.6h8.2v5.1H319.4z"/>
<path fill="#333333" d="M347.3,16.8c-6.9,0-10.4,4-10.4,11.9V44h7V29.3c0-5.3,1-6.2,3.7-6.2h6.2v-6.3H347.3z"/>
<path fill="#333333" d="M26.9,0C12,0,0,12,0,26.9s12,26.9,26.9,26.9c14.8,0,26.9-12,26.9-26.9S41.7,0,26.9,0z M40.8,21.1
	c2.1,0,3.9,1.6,3.9,3.8c0,2.1-1.6,3.9-3.8,3.9c-2.1,0-3.9-1.6-3.9-3.8C37,22.9,38.7,21.1,40.8,21.1z M24.7,17.5
	c-0.3-0.6-0.6-1.2-0.4-1.9c0.2-0.7,0.7-1.2,1.3-1.4l8.7-1.7c1.1-0.4,2.2,0.2,2.6,1.3c0.4,1.1-0.2,2.2-1.3,2.6l-5.5,1.1l3.7,4.5
	c0.2,0.3,0.4,0.6,0.4,0.9l1.7,6.6c-5.9-0.9-16.4-3.7-16.4-3.7l8.1-3.2C26.7,20.9,25.2,18.7,24.7,17.5z M25.1,37.9
	c-6.9,0-13.7-3.3-13.7-3.3c5.6-1.5,18,3,18,3C27.7,37.8,26.3,37.9,25.1,37.9z M35,36.3c-3.2,0.1-6.4-1-9.7-2c-3.4-1-6.9-2-10.8-2
	c-6.3,0-9.9,2.2-9.9,2.2s3.5-6.6,11.7-6.6c3.5,0,7.2,1,11,2.1c3.8,1,7.7,2.1,11.7,2.1c5.5,0,8.4-1.9,8.4-1.9S43.4,35.9,35,36.3z"/>
<g>
	<path fill="#333333" d="M75.4,35.6c-0.9,0-1.7-0.8-1.7-1.7c0-0.9,0.6-1.5,1.4-1.7l2.2-3.1c-0.6-0.3-1.3-0.4-2-0.4
		c-2.8,0-5.1,2.3-5.1,5.1c0,2.8,2.3,5.1,5.1,5.1c2.5,0,4.5-1.7,5-4l-3.8,0.1C76.3,35.4,75.9,35.6,75.4,35.6z"/>
	<path fill="#333333" d="M79.3,30.6l-1.5,2.1l2.6-0.1C80.2,31.8,79.8,31.2,79.3,30.6z"/>
	<path fill="#333333" d="M99.5,28.8c-0.1,0-0.1,0-0.2,0l1,3.6c0.5,0.3,0.9,0.8,0.9,1.5c0,0.9-0.8,1.7-1.7,1.7
		c-0.9,0-1.7-0.8-1.7-1.7c0-0.3,0.1-0.6,0.2-0.8l-1-3.6c-1.6,0.9-2.6,2.5-2.6,4.5c0,2.8,2.3,5.1,5.1,5.1c2.8,0,5.1-2.3,5.1-5.1
		C104.6,31.1,102.3,28.8,99.5,28.8z"/>
	<path fill="#333333" d="M87.7,0C72.8,0,60.8,12,60.8,26.9s12,26.9,26.9,26.9c14.8,0,26.9-12,26.9-26.9S102.5,0,87.7,0z M96,8.8
		c1.6,0,2.9,1.3,2.9,2.9c0,1.6-1.3,2.9-2.9,2.9S93,13.4,93,11.8C93,10.1,94.4,8.8,96,8.8z M83.1,34.9c-0.3,3.6-3.7,6.7-7.6,6.7
		c-4.3,0-7.7-3.5-7.7-7.7s3.5-7.7,7.7-7.7c1.3,0,2.5,0.3,3.5,0.9l1.2-1.8c0.6,0.7,1.2,1.3,1.6,1.8l-0.9,1.4
		C80.9,28.4,83.5,30.6,83.1,34.9z M88.1,33.4c0,0.5-0.2,1.6-1.6,1.7c-1.5,0.1-1.7-1.7-1.7-1.7c-0.2-1.5-0.6-6.7-0.6-6.7
		s-3.9-3.9-4.9-6.3c-0.3-0.7-0.2-1.9,0.3-2.5c1.4-1.4,7-4.7,10.5-4.8c2.3-0.1,3.1,1.7,3.1,1.7c0.5,0.9,1.7,5.2,1.7,5.2l4.9-0.1
		c0,0,1.3-0.2,1.4,1.1c0.1,1.2-1,1.3-1,1.3l-7.1,0.9c-0.5,0-0.8-0.3-0.9-0.7l-1.7-3.8l-5.4,1.7l3.1,5.4
		C88.3,26.1,88.2,31.7,88.1,33.4z M89.9,26.9l1.4-1.5l3.4-0.5l-4.8,5.7C89.9,29.3,89.9,27.9,89.9,26.9z M99.5,41.6
		c-4.3,0-7.7-3.5-7.7-7.7c0-3.1,1.8-5.8,4.5-7l-0.5-1.9l2.4-0.3l0.4,1.6c0.3,0,0.6-0.1,0.9-0.1c4.3,0,7.7,3.5,7.7,7.7
		C107.2,38.2,103.7,41.6,99.5,41.6z"/>
</g>
<path fill="#333333" d="M148.4,0c-14.8,0-26.9,12-26.9,26.9s12,26.9,26.9,26.9c14.8,0,26.9-12,26.9-26.9S163.3,0,148.4,0z
	 M156.6,6.6c2.1,0,3.8,1.7,3.8,3.8c0,2.1-1.7,3.8-3.8,3.8c-2.1,0-3.8-1.7-3.8-3.8C152.8,8.3,154.5,6.6,156.6,6.6z M154.7,35.7
	l-2.6,9.8c0,0-0.5,1.1-2.2,0.8c-1.6-0.3-1.5-1.5-1.5-1.5l1.3-7.5l-1.6-1.6l2.6-5l3.6,3.9C154.7,34.7,154.9,35.3,154.7,35.7z
	 M162.3,30.4c-0.7,1.2-1.7,0.8-1.7,0.8s-6.1-3-8.1-4.1c-0.3-0.2-0.4-0.6-0.5-0.9l-0.2-1.5l-3.5,4.6l-3.4,7.6c-0.1,0.4-0.6,0.8-1,0.9
	l-10,1.9c-0.3,0-1.3-0.1-1.7-1.5c-0.4-1.5,0.9-2,0.9-2l7.4-2.1l2-8l4.8-7.1l-3.5-0.6l-2.1,5.6c0,0-0.6,0.7-1.8,0.4
	c-1.1-0.3-1.1-1.4-1.1-1.4l2.2-8c0.1-0.4,0.5-0.8,1-0.8c0,0,0,0,0,0l10.5,0.2c4.1,0.4,3.7,3.2,3.7,3.2c0,1.6,0.1,6.3,0.1,6.3
	l5.9,4.6C162.3,28.8,162.8,29.5,162.3,30.4z"/>
</svg>
