<?xml version="1.0" encoding="utf-8"?>
<!-- Generator: Adobe Illustrator 18.0.0, SVG Export Plug-In . SVG Version: 6.00 Build 0)  -->
<!DOCTYPE svg PUBLIC "-//W3C//DTD SVG 1.1//EN" "http://www.w3.org/Graphics/SVG/1.1/DTD/svg11.dtd">
<svg version="1.1" id="Layer_1" xmlns="http://www.w3.org/2000/svg" xmlns:xlink="http://www.w3.org/1999/xlink" x="0px" y="0px"
	 viewBox="0 0 606.1 175.9" enable-background="new 0 0 606.1 175.9" xml:space="preserve">
<g>
	<defs>
		<path id="SVGID_1_" d="M513.5,13.1c0,0,81.6,28.6,80.7,81.9c-0.3,16.6-6.7,30-16,40.8c0.1,2,0.2,4.1-1.1,5.4
			c-1.3,1.3-3.7,1.3-5.4,1.3c-27.6,25.5-70.8,33.3-70.8,33.3S601,162.6,605.9,94.3C609.6,41.5,513.5,13.1,513.5,13.1z"/>
	</defs>
	<use xlink:href="#SVGID_1_"  overflow="visible" fill="#333333"/>
	<clipPath id="SVGID_2_">
		<use xlink:href="#SVGID_1_"  overflow="visible"/>
	</clipPath>
</g>
<path fill-rule="evenodd" clip-rule="evenodd" fill="#333333" d="M326.9,0.1c0,0-81.1,12.6-84.5,67.4c-0.6,10.2,1.1,19.6,4.3,28.2
	c0,0-0.7,8.5-0.6,8.8c0,0.2,0.1,0.9,0.6,1.6c0.6,0.8,1.1,0.8,1.4,0.9c0.5,0.2,4.3,0.8,4.3,0.8c16.6,28.6,47.6,45.3,47.6,45.3
	s-74.2-38.7-69.7-84.9C235.9,12,326.9,0.1,326.9,0.1z"/>
<path fill="#333333" d="M524.4,33.3c-0.1,1-0.6,1.6-1.6,1.7c-0.1,0-0.1,0-0.2,0c-9.6,0.2-15.7,0.3-18.3,0.6
	c-2.7,0.2-4.1,1.3-4.3,3.2c-0.1,0.8,0.1,1.4,0.6,2c0.5,0.5,1.6,1.2,3.2,1.9l10.4,4.9c6.8,3.2,9.9,8.4,9.3,15.5
	c-0.4,5.2-2.7,9.8-6.8,13.8c-1.4,1.4-3.1,2.6-5,3.6c-4.5-1.6-7.9-2.3-12.9-1.8c-4.4,0.4-9.2,1.1-12.2,5.1c-1.3-0.2-2.5-0.4-3.7-0.6
	c-1.1-0.2-1.6-0.7-1.6-1.5l0.8-10c0.1-1.1,0.6-1.7,1.7-1.8c0.1,0,0.1,0,0.2,0c8.6,0,14,0,16.3-0.2c1.9-0.2,3.2-0.6,4-1.4
	c0.8-0.8,1.3-1.8,1.4-3.3c0.1-0.8-0.1-1.5-0.6-2c-0.5-0.5-1.4-1.2-2.9-2l-11-5.9c-3.4-1.8-5.7-4-6.9-6.6c-1.2-2.6-1.7-5.6-1.4-9
	c0.9-10.8,8.4-16.9,22.5-18.1c3.1-0.3,6.5-0.4,10.1-0.3c3.7,0.1,6.4,0.3,8,0.6c0.9,0.2,1.4,0.7,1.3,1.4L524.4,33.3z M482.7,37.2
	c0,0.4-0.2,0.8-0.6,1.1c-0.4,0.3-0.8,0.5-1.2,0.6l-12,1.1c0,0-2.2,25.8-3.3,38.6c-1.4,0-3.6-0.1-9.2,0c0,0-4,0.1-7.2,1.2
	c1.1-12.9,3.2-38.3,3.2-38.3l-12.2,1.1c-0.4,0-0.8-0.1-1.1-0.3c-0.3-0.3-0.4-0.6-0.4-1.1l0.9-10.5c0-0.4,0.2-0.8,0.6-1.1
	c0.4-0.3,0.7-0.5,1.2-0.6l40.6-3.7c0.4,0,0.8,0.1,1.1,0.4c0.3,0.3,0.5,0.6,0.4,1.1L482.7,37.2z M414.4,45c-2.6,0.2-4.6,0.5-6.2,0.7
	l-1.1,13c0.3,0,2.2-0.1,5.8-0.5c3-0.3,5.2-1,6.6-2.1c1.4-1.1,2.1-2.7,2.3-4.7l0.1-1.4C422.2,46.2,419.7,44.5,414.4,45z M438.1,48.4
	l-0.1,1.3c-0.3,4.1-1.6,7.6-3.6,10.5c-2.1,2.9-4.6,5.1-7.5,6.6l9.9,21.1c0.1,0.3,0.2,0.6,0.2,0.9c-0.1,0.8-0.6,1.3-1.5,1.4
	l-14.8,1.3c-0.5,0-1-0.4-1.5-1.5l-8.6-19c-1.4,0.1-2.9,0.2-4.6,0.3l-1.7,20c0,0.4-0.2,0.8-0.6,1.2c-0.4,0.4-0.7,0.6-1.2,0.6
	l-13.1,1.2c-0.4,0-0.8-0.1-1.1-0.4c-0.3-0.3-0.5-0.7-0.4-1.1l4.5-53.6c0.2-1.9,0.6-3.3,1.3-4c0.7-0.7,2-1.4,3.8-1.9
	c4.7-1.1,10.4-2,17.1-2.6c8-0.7,14.1,0.2,18.2,2.9C436.9,36.4,438.7,41.3,438.1,48.4z M372.1,51.8c-1.1-1.8-3.1-2.6-6-2.4
	c-2.9,0.3-5,1.4-6.5,3.5c-1.5,2.1-2.4,5.3-2.7,9.7l-0.7,8.5c-0.4,4.4,0,7.5,1.1,9.3c1.1,1.8,3.1,2.6,6,2.3c2.9-0.3,5-1.4,6.5-3.4
	c1.5-2,2.4-5.2,2.7-9.6l0.7-8.5C373.6,56.7,373.2,53.6,372.1,51.8z M389.7,59.6l-0.7,8.4c-0.4,4.8-1.4,9.1-3,12.7
	c-1.6,3.7-3.6,6.7-6.1,8.9c-2.5,2.3-5.2,4-8.1,5.2c-2.9,1.2-6.2,2-9.7,2.3c-3.5,0.3-6.6,0.1-9.4-0.6c-2.8-0.7-5.2-2-7.4-3.8
	c-2.1-1.8-3.7-4.5-4.7-8c-1-3.5-1.3-7.6-0.9-12.4l0.7-8.4c0.4-4.9,1.4-9.1,3-12.8c1.6-3.7,3.6-6.7,6.1-8.9c2.5-2.3,5.2-4,8.1-5.2
	c2.9-1.2,6.2-2,9.7-2.3c3.5-0.3,6.6-0.1,9.4,0.6c2.8,0.7,5.2,2,7.4,3.8c2.1,1.9,3.7,4.5,4.7,7.9C389.8,50.6,390.1,54.7,389.7,59.6z
	 M315.6,53.8c-0.2,0-1.2,0.1-2.9,0.3c-1.7,0.2-2.7,0.3-2.8,0.3l-1.2,14.2c0.3,0,2.2-0.1,5.7-0.4c5.8-0.5,8.9-3.1,9.2-7.7l0.1-0.7
	C324,55.3,321.3,53.3,315.6,53.8z M339.8,58.4l-0.1,0.6c-0.3,3.8-1.3,7.2-3.1,10.2c-1.7,2.9-3.9,5.2-6.5,6.9c-2.6,1.7-5.3,3-8.1,3.9
	c-2.8,0.9-5.8,1.5-8.9,1.8c-0.7,0.1-1.7,0.1-3.1,0.2c-1.3,0-2.2,0.1-2.6,0.1l-1.6,18.7c0,0.4-0.2,0.8-0.6,1.2
	c-0.4,0.4-0.7,0.6-1.2,0.6l-12.9,1.2c-1.1,0.1-1.6-0.3-1.6-1.3l4.5-53.8c0.2-1.9,0.6-3.3,1.3-4c0.7-0.7,2-1.4,3.8-1.9
	c4.4-1.1,10.1-2,17-2.6c3.3-0.3,6.3-0.2,9,0.2c2.7,0.4,5.3,1.2,7.6,2.4c2.4,1.2,4.2,3.2,5.4,5.8C339.7,51.3,340.1,54.6,339.8,58.4z
	 M290.5,55.9c-0.1,1-0.6,1.6-1.6,1.7c-0.1,0-0.1,0-0.2,0c-9.6,0.2-15.7,0.3-18.3,0.6c-2.7,0.2-4.1,1.3-4.3,3.2
	c-0.1,0.8,0.1,1.4,0.6,2c0.5,0.5,1.6,1.2,3.2,1.9l10.4,4.9c6.8,3.2,9.9,8.4,9.3,15.5c-0.4,5.2-2.7,9.8-6.8,13.8
	c-4.1,4-10,6.3-17.7,7c-5.9,0.5-11.3,0.3-16.1-0.7c-1.1-0.2-1.6-0.7-1.6-1.5l0.8-10c0.1-1.1,0.6-1.7,1.7-1.8c0.1,0,0.1,0,0.2,0
	c8.6,0,14,0,16.3-0.2c1.9-0.2,3.2-0.6,4-1.4c0.8-0.8,1.3-1.8,1.4-3.3c0.1-0.8-0.1-1.5-0.6-2c-0.5-0.5-1.4-1.2-2.9-2l-11-5.9
	c-3.4-1.8-5.7-4-6.9-6.6c-1.2-2.6-1.7-5.6-1.4-9c0.9-10.8,8.4-16.9,22.5-18.1c3.1-0.3,6.5-0.4,10.1-0.3c3.7,0.1,6.4,0.3,8,0.6
	c0.9,0.2,1.4,0.7,1.3,1.4L290.5,55.9z"/>
<path fill="#333333" d="M475.5,94.2h-16.3c-1.4,0-2.5,0.3-3,0.9c-0.6,0.6-0.9,1.6-0.9,3.2v5.8h19.8c0.4,0,0.8,0.2,1.1,0.5
	c0.3,0.3,0.5,0.7,0.5,1.1v9.6c0,0.4-0.2,0.8-0.5,1.1c-0.3,0.3-0.7,0.5-1.1,0.5h-19.8v22.5c0,0.4-0.2,0.8-0.5,1.1
	c-0.3,0.3-0.7,0.5-1.2,0.5h-13.3c-0.4,0-0.8-0.2-1.1-0.5c-0.3-0.3-0.5-0.7-0.5-1.1V98.2c0-3,0.4-5.7,1.2-7.9c0.8-2.2,1.8-4,3.1-5.3
	c1.2-1.3,2.8-2.3,4.7-3.1c1.9-0.8,3.8-1.3,5.6-1.5c1.8-0.2,3.9-0.4,6.2-0.4c5.7,0,11,0.3,15.9,0.9c1.1,0.2,1.6,0.7,1.6,1.6v9.9
	c0,0.4-0.2,0.8-0.5,1.1C476.3,94,475.9,94.2,475.5,94.2z M502.2,94.7c-0.3-0.7-0.6-1.1-0.9-1.1c-0.4,0-0.7,0.3-0.8,0.9
	c-0.1,0.1-0.1,0.2-0.1,0.3l-4,20.6h9.7L502.2,94.7z M575.7,140.1c-0.6,0.6-1.3,0.9-2.1,0.9h-11c-1.4,0-2.6-0.7-3.4-2.2l-15.9-27.1
	c-0.3-0.4-0.5-0.6-0.8-0.7c-0.3,0-0.4,0.2-0.4,0.7v27.6c0,0.4-0.2,0.8-0.5,1.1c-0.3,0.3-0.7,0.5-1.2,0.5h-10.9h-1.3h-15.8
	c-0.9,0-1.4-0.5-1.6-1.5l-2.2-11.4h-14.4l-2.3,11.4c-0.2,1-0.8,1.6-1.6,1.6h-14c-0.9,0-1.3-0.4-1.3-1.2c0-0.2,0-0.3,0-0.5l10.8-49.6
	c0.8-3.7,2.5-6.3,5.2-7.6c2.6-1.4,6.1-2,10.4-2c4.3,0,7.8,0.7,10.4,2c2.6,1.3,4.3,3.9,5.1,7.6l9.7,44.3V83.8c0-0.8,0.3-1.5,0.9-2.1
	c0.6-0.6,1.3-0.9,2.1-0.9h10.7c1.3,0,2.4,0.8,3.3,2.4l16.4,27.9c0.3,0.5,0.5,0.7,0.7,0.8c0.3,0,0.4-0.3,0.4-0.8V82.4
	c0-0.4,0.2-0.8,0.5-1.1c0.3-0.3,0.7-0.5,1.2-0.5H575c0.4,0,0.8,0.2,1.1,0.5s0.5,0.7,0.5,1.1V138
	C576.6,138.8,576.3,139.5,575.7,140.1z"/>
<path fill="#828282" d="M102.4,77l-6.8,39.8c-1.4,7.2-6.1,9.1-10.3,9.1H54L67.2,53c-13.2-6-26.6-10-37.4-10c-10.2,0-18.5,2.8-24,9.4
	C1.9,57.1,0,62.9,0,69.8c0,20.7,16.3,49.4,44.1,72.9C69,163.4,96.3,175,116.2,175c9.9,0,17.9-3,23.2-9.1c4.1-4.7,5.8-10.8,5.8-17.7
	C145.2,128.1,128.8,99.9,102.4,77z"/>
<g>
	<g>
		<path fill="#333333" d="M46.1,0c-5,0-9.1,3.3-10.2,8.6l-4.4,24h39.4L54,125.9h31.3c4.2,0,8.9-1.9,10.3-9.1l14.3-84.2h28.3
			c5,0,9.1-3.3,10.2-8.6l4.4-24H46.1z"/>
	</g>
</g>
<line fill="none" stroke="#333333" stroke-width="2" stroke-miterlimit="10" x1="199" y1="0.1" x2="199" y2="175"/>
</svg>
