<?xml version="1.0" encoding="utf-8"?>
<!-- Generator: Adobe Illustrator 18.1.1, SVG Export Plug-In . SVG Version: 6.00 Build 0)  -->
<!DOCTYPE svg PUBLIC "-//W3C//DTD SVG 1.1//EN" "http://www.w3.org/Graphics/SVG/1.1/DTD/svg11.dtd">
<svg version="1.1" id="Capa_1" xmlns="http://www.w3.org/2000/svg" xmlns:xlink="http://www.w3.org/1999/xlink" x="0px" y="0px"
	 viewBox="0 0 1024 768" enable-background="new 0 0 1024 768" xml:space="preserve">
<path fill="#C2E0DC" d="M768.9,235.1c-26.5-45.4-62.5-81.4-108-108c-45.5-26.5-95.1-39.8-148.9-39.8c-53.8,0-103.5,13.3-148.9,39.8
	c-45.5,26.5-81.4,62.5-108,108c-26.5,45.4-39.8,95.1-39.8,148.9c0,53.8,13.3,103.4,39.8,148.9c26.5,45.4,62.5,81.4,108,108
	c45.5,26.5,95.1,39.8,148.9,39.8s103.5-13.3,148.9-39.8c45.4-26.5,81.4-62.5,108-108c26.5-45.5,39.8-95.1,39.8-148.9
	C808.6,330.2,795.4,280.5,768.9,235.1z M512,130.6c63.9,0,119.6,21.1,167.2,63.3l-4.8,6.8c-1.9,2.7-6.8,7.9-14.5,15.6
	c-7.7,7.7-16.2,15.1-25.3,22c-9.1,7-21.6,14.9-37.3,23.8s-32.4,16.7-50.2,23.4c-29.6-54.6-61.3-103.8-95-147.5
	C472.5,133.1,492.4,130.6,512,130.6z M313.5,226.8c24.7-31.2,54.8-55.1,90.4-71.8c31.9,42.5,63.3,91.2,94.2,146
	c-78.3,20.6-156.3,30.9-234.1,30.9C272.3,293,288.8,257.9,313.5,226.8z M275.6,475.4c-11.3-29-17-59.4-17-91.4
	c0-3.6,0.1-6.3,0.4-8.1c93.2,0,179.9-12,259.9-35.9c8.2,16,15.1,30.3,20.5,42.9c-1,0.5-2.7,1.1-5,1.7s-4,1.1-5,1.4l-14.3,5
	c-9.8,3.6-22.6,9.8-38.4,18.5c-15.8,8.8-32.6,19.2-50.4,31.3c-17.8,12.1-36.1,28.1-55,48.1c-18.9,20-34.8,41.4-47.7,64.3
	C302.9,530.3,287,504.3,275.6,475.4z M512,637.4c-60.3,0-114.1-19.3-161.5-57.9l5.8,4.2c9-19.8,22.3-38.9,39.8-57.2
	c17.5-18.3,34.4-33,50.6-44.2c16.2-11.2,33.9-21.8,52.9-31.7c19.1-9.9,32.1-16.2,39-18.9c7-2.7,12.5-4.8,16.6-6.4l0.8-0.4h0.8
	c25.2,66.2,43.3,130.3,54.1,192.4C579,630.7,546,637.4,512,637.4z M725.2,520.9c-19.1,29.5-42.9,53.9-71.5,73.2
	c-10.6-59.2-27-119.6-49.4-181.1c51.2-8,103.9-4.3,158,11.2C756.6,459.2,744.3,491.4,725.2,520.9z M761.5,380.5
	c-2.6-0.5-5.8-1.1-9.7-1.7c-3.9-0.6-8.6-1.4-14.1-2.3c-5.5-0.9-11.7-1.7-18.5-2.5s-14.1-1.5-21.8-2.1c-7.7-0.6-16-1.2-24.7-1.5
	c-8.8-0.4-17.6-0.6-26.7-0.6c-9,0-18.5,0.3-28.4,0.8c-9.9,0.5-19.5,1.4-28.8,2.7c-0.8-1.3-1.7-3.4-2.9-6.4c-1.2-3-2-5.2-2.5-6.8
	c-4.9-10.8-10.6-23-17-36.7c17.8-7.2,34.7-15.5,50.8-24.9c16.1-9.4,29-17.8,38.6-25.1c9.7-7.3,18.8-15.1,27.4-23.4
	c8.6-8.2,14.2-14,16.8-17.2c2.6-3.2,5-6.4,7.3-9.5l0.4-0.4c37.6,45.8,56.8,98.6,57.5,158.4L761.5,380.5z"/>
</svg>
