<?xml version="1.0" encoding="utf-8"?>
<!-- Generator: Adobe Illustrator 18.1.1, SVG Export Plug-In . SVG Version: 6.00 Build 0)  -->
<!DOCTYPE svg PUBLIC "-//W3C//DTD SVG 1.1//EN" "http://www.w3.org/Graphics/SVG/1.1/DTD/svg11.dtd">
<svg version="1.1" id="Capa_1" xmlns="http://www.w3.org/2000/svg" xmlns:xlink="http://www.w3.org/1999/xlink" x="0px" y="0px"
	 viewBox="0 0 1024 768" enable-background="new 0 0 1024 768" xml:space="preserve">
<path fill="#3E4543" d="M768.857,235.103c-26.524-45.445-62.507-81.427-107.951-107.951
	c-45.454-26.524-95.076-39.784-148.897-39.784c-53.817,0-103.452,13.26-148.897,39.784c-45.45,26.52-81.432,62.502-107.956,107.951
	c-26.529,45.449-39.789,95.085-39.789,148.897c0,53.817,13.265,103.443,39.784,148.897c26.524,45.44,62.507,81.427,107.956,107.951
	c45.45,26.524,95.08,39.784,148.897,39.784s103.452-13.26,148.897-39.784c45.445-26.52,81.427-62.507,107.951-107.951
	c26.52-45.45,39.78-95.085,39.78-148.897C808.632,330.183,795.372,280.548,768.857,235.103z M512.005,130.626
	c63.853,0,119.604,21.115,167.239,63.341l-4.826,6.756c-1.934,2.707-6.76,7.917-14.488,15.644
	c-7.723,7.723-16.156,15.066-25.297,22.016c-9.145,6.955-21.561,14.872-37.272,23.756c-15.711,8.884-32.446,16.678-50.214,23.372
	c-29.611-54.594-61.279-103.775-95.014-147.546C472.48,133.073,492.434,130.626,512.005,130.626z M313.481,226.792
	c24.718-31.151,54.841-55.102,90.377-71.836c31.929,42.487,63.341,91.155,94.241,146.001c-78.279,20.599-156.297,30.9-234.06,30.895
	C272.284,292.973,288.763,257.948,313.481,226.792z M275.621,475.354c-11.33-28.971-16.996-59.42-16.996-91.354
	c0-3.608,0.133-6.31,0.389-8.111c93.217,0,179.864-11.97,259.944-35.921c8.239,15.962,15.066,30.255,20.47,42.875
	c-1.038,0.512-2.697,1.09-5.02,1.735s-3.996,1.09-5.03,1.351l-14.289,5.025c-9.79,3.603-22.604,9.78-38.433,18.536
	c-15.834,8.761-32.635,19.186-50.403,31.289c-17.768,12.108-36.115,28.136-55.04,48.095c-18.925,19.954-34.826,41.387-47.701,64.303
	C302.914,530.261,286.952,504.315,275.621,475.354z M512.005,637.378c-60.255,0-114.072-19.314-161.451-57.937l5.793,4.248
	c9.012-19.831,22.272-38.884,39.784-57.164c17.512-18.28,34.375-33.029,50.598-44.231c16.223-11.198,33.858-21.751,52.916-31.673
	c19.053-9.913,32.052-16.223,39.007-18.92c6.955-2.707,12.492-4.835,16.612-6.376l0.773-0.389h0.773
	c25.23,66.176,43.259,130.295,54.073,192.351C578.953,630.68,545.995,637.374,512.005,637.378z M725.219,520.927
	c-19.058,29.483-42.88,53.883-71.452,73.192c-10.567-59.221-27.036-119.609-49.446-181.148
	c51.243-7.988,103.898-4.252,157.971,11.193C756.626,459.183,744.267,491.439,725.219,520.927z M761.515,380.525
	c-2.574-0.512-5.793-1.095-9.657-1.735c-3.859-0.64-8.562-1.418-14.099-2.318c-5.533-0.901-11.719-1.735-18.541-2.508
	c-6.822-0.773-14.094-1.479-21.826-2.124c-7.723-0.645-15.962-1.157-24.713-1.545c-8.766-0.384-17.645-0.578-26.657-0.578
	c-9.007,0-18.475,0.261-28.383,0.773c-9.913,0.507-19.503,1.418-28.772,2.702c-0.777-1.29-1.74-3.413-2.897-6.376
	c-1.157-2.958-2.001-5.215-2.503-6.76c-4.897-10.814-10.562-23.045-17.005-36.689c17.768-7.215,34.702-15.516,50.802-24.917
	c16.09-9.401,28.956-17.764,38.618-25.102c9.657-7.344,18.797-15.132,27.425-23.372c8.623-8.239,14.222-13.966,16.801-17.185
	c2.579-3.224,5.025-6.376,7.339-9.463l0.389-0.389c37.594,45.833,56.785,98.617,57.548,158.36L761.515,380.525z"/>
</svg>
