<?xml version="1.0" encoding="utf-8"?>
<!-- Generator: Adobe Illustrator 17.1.0, SVG Export Plug-In . SVG Version: 6.00 Build 0)  -->
<!DOCTYPE svg PUBLIC "-//W3C//DTD SVG 1.1//EN" "http://www.w3.org/Graphics/SVG/1.1/DTD/svg11.dtd">
<svg version="1.1" id="Capa_1" xmlns="http://www.w3.org/2000/svg" xmlns:xlink="http://www.w3.org/1999/xlink" x="0px" y="0px"
	 viewBox="0 0 216 146" enable-background="new 0 0 216 146" xml:space="preserve">
<path fill="#333333" d="M177.2,19.5c-2.6-2.6-5.6-3.8-9.2-3.8H48c-3.6,0-6.7,1.3-9.2,3.8C36.3,22,35,25.1,35,28.7v88.6
	c0,3.6,1.3,6.7,3.8,9.2c2.6,2.6,5.6,3.8,9.2,3.8H168c3.6,0,6.7-1.3,9.2-3.8c2.6-2.6,3.8-5.6,3.8-9.2V28.7
	C181,25.1,179.7,22,177.2,19.5z M170.6,117.3c0,0.7-0.3,1.3-0.8,1.8s-1.1,0.8-1.8,0.8H48c-0.7,0-1.3-0.3-1.8-0.8s-0.8-1.1-0.8-1.8
	V54.7c1.7,2,3.6,3.7,5.6,5.4c14.6,11.2,26.1,20.4,34.7,27.5c2.8,2.3,5,4.2,6.8,5.5s4.1,2.6,7,4s5.7,2,8.4,2h0.1h0.1
	c2.6,0,5.4-0.7,8.4-2c3-1.3,5.3-2.6,7-4c1.7-1.3,4-3.1,6.8-5.5c8.6-7.2,20.1-16.3,34.7-27.5c2-1.6,3.9-3.4,5.6-5.4L170.6,117.3
	L170.6,117.3z M170.6,30.8v0.9c0,3.2-1.3,6.8-3.8,10.7c-2.5,3.9-5.3,7.1-8.2,9.4c-10.5,8.3-21.4,16.9-32.7,25.8
	c-0.3,0.3-1.3,1.1-2.9,2.4c-1.6,1.3-2.8,2.4-3.7,3.1c-0.9,0.7-2.1,1.6-3.6,2.6s-2.9,1.8-4.1,2.2s-2.4,0.7-3.5,0.7H108h-0.1
	c-1.1,0-2.3-0.2-3.5-0.7c-1.2-0.5-2.6-1.2-4.1-2.2c-1.5-1-2.7-1.9-3.6-2.6c-0.9-0.7-2.2-1.7-3.7-3.1c-1.6-1.3-2.5-2.1-2.9-2.4
	c-11.3-9-22.2-17.6-32.7-25.8c-8-6.3-12-14-12-23.1c0-0.7,0.3-1.3,0.8-1.8s1.1-0.8,1.8-0.8H168c0.4,0.2,0.8,0.3,1.1,0.2
	c0.3-0.1,0.6,0.1,0.7,0.6c0.2,0.5,0.3,0.8,0.4,0.7s0.2,0.3,0.2,1c0,0.7,0,1.1,0,1.1L170.6,30.8L170.6,30.8z"/>
</svg>
