<?xml version="1.0" encoding="utf-8"?>
<!-- Generator: Adobe Illustrator 18.1.1, SVG Export Plug-In . SVG Version: 6.00 Build 0)  -->
<!DOCTYPE svg PUBLIC "-//W3C//DTD SVG 1.1//EN" "http://www.w3.org/Graphics/SVG/1.1/DTD/svg11.dtd">
<svg version="1.1" id="Capa_1" xmlns="http://www.w3.org/2000/svg" xmlns:xlink="http://www.w3.org/1999/xlink" x="0px" y="0px"
	 viewBox="0 0 1024 768" enable-background="new 0 0 1024 768" xml:space="preserve">
<path fill="#C2E0DC" d="M840.1,130.4c-12.3-12.3-26.5-18-43.6-18H227.6c-17.1,0-31.8,6.2-43.6,18s-18,26.5-18,43.6v420
	c0,17.1,6.2,31.8,18,43.6c12.3,12.3,26.5,18,43.6,18h568.9c17.1,0,31.8-6.2,43.6-18c12.3-12.3,18-26.5,18-43.6V174
	C858.1,156.9,851.9,142.2,840.1,130.4z M808.8,594c0,3.3-1.4,6.2-3.8,8.5c-2.4,2.4-5.2,3.8-8.5,3.8H227.6c-3.3,0-6.2-1.4-8.5-3.8
	c-2.4-2.4-3.8-5.2-3.8-8.5V297.2c8.1,9.5,17.1,17.5,26.5,25.6c69.2,53.1,123.7,96.7,164.5,130.4c13.3,10.9,23.7,19.9,32.2,26.1
	s19.4,12.3,33.2,19c13.7,6.6,27,9.5,39.8,9.5h0.5h0.5c12.3,0,25.6-3.3,39.8-9.5c14.2-6.2,25.1-12.3,33.2-19
	c8.1-6.2,19-14.7,32.2-26.1c40.8-34.1,95.3-77.3,164.5-130.4c9.5-7.6,18.5-16.1,26.5-25.6V594L808.8,594z M808.8,183.9v4.3
	c0,15.2-6.2,32.2-18,50.7s-25.1,33.7-38.9,44.6c-49.8,39.3-101.5,80.1-155,122.3c-1.4,1.4-6.2,5.2-13.7,11.4
	c-7.6,6.2-13.3,11.4-17.5,14.7c-4.3,3.3-10,7.6-17.1,12.3s-13.7,8.5-19.4,10.4c-5.7,1.9-11.4,3.3-16.6,3.3H512h-0.5
	c-5.2,0-10.9-0.9-16.6-3.3s-12.3-5.7-19.4-10.4s-12.8-9-17.1-12.3c-4.3-3.3-10.4-8.1-17.5-14.7c-7.6-6.2-11.9-10-13.7-11.4
	c-53.6-42.7-105.2-83.4-155-122.3c-37.9-29.9-56.9-66.4-56.9-109.5c0-3.3,1.4-6.2,3.8-8.5c2.4-2.4,5.2-3.8,8.5-3.8h568.9
	c1.9,0.9,3.8,1.4,5.2,0.9s2.8,0.5,3.3,2.8c0.9,2.4,1.4,3.8,1.9,3.3s0.9,1.4,0.9,4.7s0,5.2,0,5.2L808.8,183.9L808.8,183.9z"/>
</svg>
