<?xml version="1.0" encoding="utf-8"?>
<!-- Generator: Adobe Illustrator 18.1.1, SVG Export Plug-In . SVG Version: 6.00 Build 0)  -->
<!DOCTYPE svg PUBLIC "-//W3C//DTD SVG 1.1//EN" "http://www.w3.org/Graphics/SVG/1.1/DTD/svg11.dtd">
<svg version="1.1" id="Capa_1" xmlns="http://www.w3.org/2000/svg" xmlns:xlink="http://www.w3.org/1999/xlink" x="0px" y="0px"
	 viewBox="0 0 1024 768" enable-background="new 0 0 1024 768" xml:space="preserve">
<path fill="#3E4543" d="M840.059,130.37c-12.326-12.326-26.548-18.015-43.615-18.015H227.556c-17.067,0-31.763,6.163-43.615,18.015
	c-11.852,11.852-18.015,26.548-18.015,43.615v420.03c0,17.067,6.163,31.763,18.015,43.615
	c12.326,12.326,26.548,18.015,43.615,18.015h568.889c17.067,0,31.763-6.163,43.615-18.015
	c12.326-12.326,18.015-26.548,18.015-43.615v-420.03C858.073,156.919,851.911,142.222,840.059,130.37z M808.77,594.015
	c0,3.319-1.422,6.163-3.793,8.533c-2.37,2.37-5.215,3.793-8.533,3.793H227.556c-3.319,0-6.163-1.422-8.533-3.793
	c-2.37-2.37-3.793-5.215-3.793-8.533v-296.77c8.059,9.482,17.067,17.541,26.548,25.6c69.215,53.096,123.733,96.711,164.504,130.37
	c13.274,10.904,23.704,19.911,32.237,26.074s19.437,12.326,33.185,18.963c13.748,6.637,27.022,9.481,39.822,9.481H512h0.474
	c12.326,0,25.6-3.319,39.822-9.481c14.222-6.163,25.126-12.326,33.185-18.963c8.059-6.163,18.963-14.696,32.237-26.074
	c40.77-34.133,95.289-77.274,164.504-130.37c9.482-7.585,18.489-16.119,26.548-25.6V594.015L808.77,594.015z M808.77,183.941v4.267
	c0,15.17-6.163,32.237-18.015,50.726c-11.852,18.489-25.126,33.659-38.874,44.563c-49.778,39.348-101.452,80.119-155.022,122.311
	c-1.422,1.422-6.163,5.215-13.748,11.378c-7.585,6.163-13.274,11.378-17.541,14.696c-4.267,3.319-9.956,7.585-17.067,12.326
	s-13.748,8.533-19.437,10.43c-5.689,1.896-11.378,3.318-16.593,3.318H512h-0.474c-5.215,0-10.904-0.948-16.593-3.318
	s-12.326-5.689-19.437-10.43s-12.8-9.007-17.067-12.326c-4.267-3.318-10.43-8.059-17.541-14.696
	c-7.585-6.163-11.852-9.956-13.748-11.378c-53.57-42.667-105.244-83.437-155.022-122.311
	c-37.926-29.867-56.889-66.37-56.889-109.511c0-3.319,1.422-6.163,3.793-8.533c2.37-2.37,5.215-3.793,8.533-3.793h568.889
	c1.896,0.948,3.793,1.422,5.215,0.948s2.844,0.474,3.318,2.844c0.948,2.37,1.422,3.793,1.896,3.319s0.948,1.422,0.948,4.741
	s0,5.215,0,5.215L808.77,183.941L808.77,183.941z"/>
</svg>
