<?xml version="1.0" encoding="utf-8"?>
<!-- Generator: Adobe Illustrator 18.0.0, SVG Export Plug-In . SVG Version: 6.00 Build 0)  -->
<!DOCTYPE svg PUBLIC "-//W3C//DTD SVG 1.1//EN" "http://www.w3.org/Graphics/SVG/1.1/DTD/svg11.dtd">
<svg version="1.1" id="Layer_1" xmlns="http://www.w3.org/2000/svg" xmlns:xlink="http://www.w3.org/1999/xlink" x="0px" y="0px"
	 viewBox="0 0 982 1557" enable-background="new 0 0 982 1557" xml:space="preserve">
<g transform="scale(1 -1) translate(0 -1280)">
	<path fill="#333333" d="M689-240L37,411c-24.7,24.7-37,54.8-37,90.5s12.3,65.8,37,90.5l652,651c24.7,24.7,54.8,37,90.5,37
		s65.8-12.3,90.5-37l75-75c24.7-24.7,37-54.8,37-90.5s-12.3-65.8-37-90.5L459,501L945,16c24.7-25.3,37-55.7,37-91s-12.3-65.3-37-90
		l-75-75c-24.7-24.7-54.8-37-90.5-37S713.7-264.7,689-240z"/>
</g>
</svg>
