<?xml version="1.0" encoding="utf-8"?>
<!-- Generator: Adobe Illustrator 18.1.1, SVG Export Plug-In . SVG Version: 6.00 Build 0)  -->
<!DOCTYPE svg PUBLIC "-//W3C//DTD SVG 1.1//EN" "http://www.w3.org/Graphics/SVG/1.1/DTD/svg11.dtd">
<svg version="1.1" id="Capa_1" xmlns="http://www.w3.org/2000/svg" xmlns:xlink="http://www.w3.org/1999/xlink" x="0px" y="0px"
	 viewBox="0 0 1024 768" enable-background="new 0 0 1024 768" xml:space="preserve">
<g transform="scale(1 -1) translate(0 -1280)">
	<path fill="#C2E0DC" d="M339.9,729.6h74.9v224.7h-74.9V729.6z M419.6,1024c0,11.4-4.3,20.4-11.9,28s-17.5,10.9-30.3,10.9
		c-12.3,0-22.8-3.8-30.8-10.9c-8.1-7.1-11.9-16.6-11.9-28c0-10.9,3.8-20.4,11.4-27.5c7.6-7.1,17.5-11.4,29.9-11.4h0.5
		c12.8,0,23.2,3.8,30.8,11.4S419.6,1013.1,419.6,1024z M609.2,729.6h74.9v128.9c0,33.2-8.1,58.3-23.7,75.4
		c-15.6,17.1-36.5,25.6-62.6,25.6c-29.4,0-52.1-12.8-67.8-37.9h0.5v32.7h-74.4c0.5-14.2,0.5-89.1,0-224.7H531v125.6
		c0,8.1,0.9,14.2,2.4,18c3.3,7.6,8.1,14.2,14.7,19.4c6.6,5.2,14.7,8.1,24.2,8.1c25.1,0,37.5-17.1,37.5-50.7V729.6H609.2z
		 M760.9,1053.4v-311c0-25.6-9-47.9-27.5-65.9c-18-18-40.3-27.5-65.9-27.5h-311c-25.6,0-47.9,9-65.9,27.5s-27.5,40.3-27.5,65.9v311
		c0,25.6,9,47.9,27.5,65.9s40.3,27.5,65.9,27.5h311c25.6,0,47.9-9,65.9-27.5C751.9,1100.8,760.9,1079,760.9,1053.4z"/>
</g>
</svg>
