<?xml version="1.0" encoding="utf-8"?>
<!-- Generator: Adobe Illustrator 18.1.1, SVG Export Plug-In . SVG Version: 6.00 Build 0)  -->
<!DOCTYPE svg PUBLIC "-//W3C//DTD SVG 1.1//EN" "http://www.w3.org/Graphics/SVG/1.1/DTD/svg11.dtd">
<svg version="1.1" id="Capa_1" xmlns="http://www.w3.org/2000/svg" xmlns:xlink="http://www.w3.org/1999/xlink" x="0px" y="0px"
	 viewBox="0 0 1024 768" enable-background="new 0 0 1024 768" xml:space="preserve">
<g transform="scale(1 -1) translate(0 -1280)">
	<path fill="#3E4543" d="M339.911,729.6h74.904v224.711h-74.904V729.6z M419.556,1024c0,11.378-4.267,20.385-11.852,27.97
		s-17.541,10.904-30.341,10.904c-12.326,0-22.756-3.793-30.815-10.904c-8.059-7.111-11.852-16.593-11.852-27.97
		c0-10.904,3.793-20.385,11.378-27.497c7.585-7.111,17.541-11.378,29.867-11.378h0.474c12.8,0,23.23,3.793,30.815,11.378
		S419.556,1013.096,419.556,1024z M609.185,729.6h74.904v128.948c0,33.185-8.059,58.311-23.704,75.378
		c-15.644,17.067-36.504,25.6-62.578,25.6c-29.393,0-52.148-12.8-67.793-37.926h0.474v32.711h-74.43
		c0.474-14.222,0.474-89.126,0-224.711h74.904v125.63c0,8.059,0.948,14.222,2.37,18.015c3.319,7.585,8.059,14.222,14.696,19.437
		c6.637,5.215,14.696,8.059,24.178,8.059c25.126,0,37.452-17.067,37.452-50.726V729.6H609.185z M760.889,1053.392V742.4
		c0-25.6-9.007-47.881-27.496-65.896c-18.015-18.015-40.296-27.497-65.896-27.497H356.504c-25.6,0-47.881,9.008-65.896,27.497
		S263.111,716.8,263.111,742.4v310.992c0,25.6,9.007,47.881,27.496,65.896s40.296,27.496,65.896,27.496h310.993
		c25.6,0,47.882-9.008,65.896-27.496C751.882,1100.8,760.889,1078.992,760.889,1053.392z"/>
</g>
</svg>
