<?xml version="1.0" encoding="utf-8"?>
<!-- Generator: Adobe Illustrator 18.0.0, SVG Export Plug-In . SVG Version: 6.00 Build 0)  -->
<!DOCTYPE svg PUBLIC "-//W3C//DTD SVG 1.1//EN" "http://www.w3.org/Graphics/SVG/1.1/DTD/svg11.dtd">
<svg version="1.1" id="Capa_1" xmlns="http://www.w3.org/2000/svg" xmlns:xlink="http://www.w3.org/1999/xlink" x="0px" y="0px"
	 viewBox="0 0 216 146" enable-background="new 0 0 216 146" xml:space="preserve">
<g transform="scale(1 -1) translate(0 -1280)">
	<path fill="#333333" d="M71.7,1171.9h15.8v47.4H71.7V1171.9z M88.5,1234c0,2.4-0.9,4.3-2.5,5.9c-1.6,1.6-3.7,2.3-6.4,2.3
		c-2.6,0-4.8-0.8-6.5-2.3s-2.5-3.5-2.5-5.9c0-2.3,0.8-4.3,2.4-5.8s3.7-2.4,6.3-2.4h0.1c2.7,0,4.9,0.8,6.5,2.4S88.5,1231.7,88.5,1234
		z M128.5,1171.9h15.8v27.2c0,7-1.7,12.3-5,15.9c-3.3,3.6-7.7,5.4-13.2,5.4c-6.2,0-11-2.7-14.3-8h0.1v6.9H96.2
		c0.1-3,0.1-18.8,0-47.4H112v26.5c0,1.7,0.2,3,0.5,3.8c0.7,1.6,1.7,3,3.1,4.1s3.1,1.7,5.1,1.7c5.3,0,7.9-3.6,7.9-10.7V1171.9z
		 M160.5,1240.2v-65.6c0-5.4-1.9-10.1-5.8-13.9c-3.8-3.8-8.5-5.8-13.9-5.8H75.2c-5.4,0-10.1,1.9-13.9,5.8s-5.8,8.5-5.8,13.9v65.6
		c0,5.4,1.9,10.1,5.8,13.9s8.5,5.8,13.9,5.8h65.6c5.4,0,10.1-1.9,13.9-5.8C158.6,1250.2,160.5,1245.6,160.5,1240.2z"/>
</g>
</svg>
