<?xml version="1.0" encoding="utf-8"?>
<!-- Generator: Adobe Illustrator 18.0.0, SVG Export Plug-In . SVG Version: 6.00 Build 0)  -->
<!DOCTYPE svg PUBLIC "-//W3C//DTD SVG 1.1//EN" "http://www.w3.org/Graphics/SVG/1.1/DTD/svg11.dtd">
<svg version="1.1" id="Layer_1" xmlns="http://www.w3.org/2000/svg" xmlns:xlink="http://www.w3.org/1999/xlink" x="0px" y="0px"
	 viewBox="0 0 233 168" enable-background="new 0 0 233 168" xml:space="preserve">
<path fill="#FFFFFF" d="M35.1,80.5l-3.7-14.7c-2.1-8.3,3.1-17.1,11.5-19.1c8.3-2.1,16.7,3.2,18.8,11.5l5.6,22.3l32.2,0L92,50.5
	c-2.1-8.3,3.1-17,11.5-19.1c8.3-2.1,16.7,3.2,18.8,11.5l9.4,37.5l32.2,0L155,44.9l-2.4-9.7c-6.3-24.9-31.7-40.1-56.6-33.9
	c-11.7,2.9-21.2,9.9-27.4,18.9c-9.7-5-21.5-6.6-33.1-3.7c-25,6.3-40.2,31.7-33.9,56.6l1.8,7.2L35.1,80.5z"/>
<path fill="#FFFFFF" d="M197.9,87.5l3.7,14.7c2.1,8.3-3.1,17.1-11.5,19.1c-8.3,2.1-16.7-3.2-18.8-11.5l-5.6-22.3l-32.2,0l7.5,29.9
	c2.1,8.3-3.1,17.1-11.5,19.1c-8.3,2.1-16.7-3.2-18.8-11.5l-9.4-37.5l-32.2,0l8.9,35.4l2.4,9.7c6.3,24.9,31.7,40.1,56.6,33.9
	c11.7-2.9,21.2-9.9,27.4-18.9c9.7,5,21.5,6.6,33.1,3.7c25-6.3,40.2-31.7,33.9-56.6l-1.8-7.2L197.9,87.5z"/>
</svg>
