<?xml version="1.0" encoding="utf-8"?>
<!-- Generator: Adobe Illustrator 18.0.0, SVG Export Plug-In . SVG Version: 6.00 Build 0)  -->
<!DOCTYPE svg PUBLIC "-//W3C//DTD SVG 1.1//EN" "http://www.w3.org/Graphics/SVG/1.1/DTD/svg11.dtd">
<svg version="1.1" id="Layer_1" xmlns="http://www.w3.org/2000/svg" xmlns:xlink="http://www.w3.org/1999/xlink" x="0px" y="0px"
	 viewBox="-443.3 337.1 1083.3 461.2" enable-background="new -443.3 337.1 1083.3 461.2" xml:space="preserve">
<path fill="#333333" d="M96.4,558.4L86.2,518c-5.8-22.8,8.5-47,31.6-52.5c22.8-5.8,45.9,8.8,51.6,31.6l15.4,61.3h88.4L252.7,476
	c-5.8-22.8,8.5-46.7,31.6-52.5c22.8-5.8,45.9,8.8,51.6,31.6l25.8,103h88.4l-24.4-97.5l-6.6-26.6c-17.3-68.4-87.1-110.1-155.5-93.1
	c-32.1,8-58.2,27.2-75.3,51.9c-26.6-13.7-59.1-18.1-90.9-10.2c-68.6,17.3-110.3,87.1-93,155.5l4.9,19.8L96.4,558.4z"/>
<path fill="#333333" d="M543.6,577.6l10.2,40.4c5.8,22.8-8.5,47-31.6,52.5c-22.8,5.8-45.9-8.8-51.6-31.6l-15.4-61.3h-88.4l20.6,82.1
	c5.8,22.8-8.5,47-31.6,52.5c-22.8,5.8-45.9-8.8-51.6-31.6l-25.8-103H190l24.4,97.2l6.6,26.6c17.3,68.4,87.1,110.1,155.5,93.1
	c32.1-8,58.2-27.2,75.3-51.9c26.6,13.7,59.1,18.1,90.9,10.2c68.7-17.3,110.4-87.1,93.1-155.5l-4.9-19.8L543.6,577.6z"/>
<g transform="scale(1 -1) translate(0 -1280)">
	<path fill="#333333" d="M-311.5,611l-89.9,89.8c-3.4,3.4-5.1,7.6-5.1,12.5c0,4.9,1.7,9.1,5.1,12.5l89.9,89.8
		c3.4,3.4,7.6,5.1,12.5,5.1s9.1-1.7,12.5-5.1l10.3-10.3c3.4-3.4,5.1-7.6,5.1-12.5c0-4.9-1.7-9.1-5.1-12.5l-67-67l67-66.9
		c3.4-3.5,5.1-7.7,5.1-12.5c0-4.9-1.7-9-5.1-12.4l-10.3-10.3c-3.4-3.4-7.6-5.1-12.5-5.1S-308.1,607.5-311.5,611z"/>
</g>
<line fill="none" stroke="#333333" stroke-width="3" stroke-miterlimit="10" x1="-131.2" y1="337.1" x2="-131.2" y2="798.3"/>
</svg>
