<?xml version="1.0" encoding="utf-8"?>
<!-- Generator: Adobe Illustrator 17.1.0, SVG Export Plug-In . SVG Version: 6.00 Build 0)  -->
<!DOCTYPE svg PUBLIC "-//W3C//DTD SVG 1.1//EN" "http://www.w3.org/Graphics/SVG/1.1/DTD/svg11.dtd">
<svg version="1.1" id="Layer_1" xmlns="http://www.w3.org/2000/svg" xmlns:xlink="http://www.w3.org/1999/xlink" x="0px" y="0px"
	 viewBox="0 0 30 27.4" enable-background="new 0 0 30 27.4" xml:space="preserve">
<path fill="#FFFFFF" d="M30,5c0,0.6-0.4,1-1,1H1C0.4,6,0,5.6,0,5V1c0-0.6,0.4-1,1-1h28c0.6,0,1,0.4,1,1V5z"/>
<path fill="#FFFFFF" d="M30,26.4c0,0.6-0.4,1-1,1H1c-0.6,0-1-0.4-1-1v-4c0-0.6,0.4-1,1-1h28c0.6,0,1,0.4,1,1V26.4z"/>
<path fill="#FFFFFF" d="M30,15.7c0,0.6-0.4,1-1,1H1c-0.6,0-1-0.4-1-1v-4c0-0.6,0.4-1,1-1h28c0.6,0,1,0.4,1,1V15.7z"/>
</svg>
