<?xml version="1.0" encoding="utf-8"?>
<!-- Generator: Adobe Illustrator 18.1.1, SVG Export Plug-In . SVG Version: 6.00 Build 0)  -->
<!DOCTYPE svg PUBLIC "-//W3C//DTD SVG 1.1//EN" "http://www.w3.org/Graphics/SVG/1.1/DTD/svg11.dtd">
<svg version="1.1" id="Capa_1" xmlns="http://www.w3.org/2000/svg" xmlns:xlink="http://www.w3.org/1999/xlink" x="0px" y="0px"
	 viewBox="0 0 1024 768" enable-background="new 0 0 1024 768" xml:space="preserve">
<path fill="#C2E0DC" d="M816.4,195.5c-23.9,10.3-47.9,16.7-71.8,19.3c27-16.2,45.3-39.1,54.8-68.8c-24.7,14.7-51.1,24.7-79.2,30.1
	c-24.7-26.3-55.1-39.4-91.2-39.4c-34.5,0-63.9,12.2-88.3,36.5c-24.3,24.3-36.5,53.8-36.5,88.3c0,9.3,1,18.8,3.1,28.6
	c-51-2.6-98.8-15.4-143.5-38.4c-44.7-23-82.6-53.8-113.7-92.1c-11.3,19.3-17,40.3-17,63c0,21.4,5,41.2,15.1,59.5
	c10,18.3,23.6,33.1,40.6,44.4c-20.1-0.8-38.9-6.1-56.4-15.8v1.5c0,30.1,9.5,56.6,28.4,79.4c18.9,22.8,42.8,37.1,71.6,43.1
	c-10.8,2.8-21.8,4.2-32.8,4.2c-7.2,0-15.1-0.6-23.6-1.9c8,25,22.7,45.5,44,61.6c21.4,16.1,45.6,24.4,72.6,24.9
	c-45.3,35.5-96.9,53.3-154.9,53.3c-11.1,0-21.1-0.5-30.1-1.5c57.9,37.3,121.8,56,191.6,56c44.3,0,85.9-7,124.7-21
	c38.9-14,72.1-32.8,99.7-56.4c27.5-23.6,51.3-50.7,71.3-81.3c20-30.6,34.8-62.6,44.6-96c9.8-33.4,14.7-66.8,14.7-100.2
	c0-7.2-0.1-12.6-0.4-16.2C778.2,242.3,799.1,220.7,816.4,195.5z"/>
</svg>
