<?xml version="1.0" encoding="utf-8"?>
<!-- Generator: Adobe Illustrator 18.1.1, SVG Export Plug-In . SVG Version: 6.00 Build 0)  -->
<!DOCTYPE svg PUBLIC "-//W3C//DTD SVG 1.1//EN" "http://www.w3.org/Graphics/SVG/1.1/DTD/svg11.dtd">
<svg version="1.1" id="Capa_1" xmlns="http://www.w3.org/2000/svg" xmlns:xlink="http://www.w3.org/1999/xlink" x="0px" y="0px"
	 viewBox="0 0 1024 768" enable-background="new 0 0 1024 768" xml:space="preserve">
<path fill="#3E4543" d="M816.357,195.519c-23.945,10.302-47.9,16.735-71.836,19.319c27.036-16.223,45.321-39.14,54.85-68.75
	c-24.728,14.673-51.119,24.714-79.185,30.123c-24.723-26.264-55.102-39.4-91.155-39.4c-34.503,0-63.919,12.165-88.258,36.499
	c-24.334,24.334-36.499,53.751-36.499,88.254c0,9.268,1.029,18.797,3.091,28.582c-50.987-2.574-98.816-15.384-143.493-38.428
	c-44.677-23.049-82.593-53.755-113.749-92.122c-11.33,19.309-16.996,40.296-16.996,62.957c0,21.371,5.02,41.202,15.066,59.482
	c10.041,18.28,23.561,33.086,40.557,44.416c-20.087-0.773-38.884-6.054-56.391-15.839v1.545c0,30.127,9.463,56.581,28.388,79.374
	c18.925,22.794,42.809,37.144,71.647,43.065c-10.814,2.83-21.76,4.248-32.83,4.248c-7.211,0-15.066-0.645-23.561-1.925
	c7.983,24.974,22.661,45.506,44.032,61.601c21.371,16.1,45.578,24.396,72.614,24.917c-45.317,35.527-96.943,53.295-154.88,53.295
	c-11.074,0-21.115-0.507-30.127-1.541c57.937,37.333,121.794,55.998,191.578,55.998c44.288,0,85.874-7.012,124.748-21.044
	c38.888-14.033,72.102-32.83,99.655-56.396c27.548-23.557,51.304-50.66,71.258-81.304c19.954-30.64,34.821-62.63,44.61-95.976
	c9.785-33.351,14.677-66.754,14.677-100.234c0-7.211-0.128-12.615-0.389-16.223C778.247,242.253,799.107,220.749,816.357,195.519z"
	/>
</svg>
