<?xml version="1.0" encoding="utf-8"?>
<!-- Generator: Adobe Illustrator 18.0.0, SVG Export Plug-In . SVG Version: 6.00 Build 0)  -->
<!DOCTYPE svg PUBLIC "-//W3C//DTD SVG 1.1//EN" "http://www.w3.org/Graphics/SVG/1.1/DTD/svg11.dtd">
<svg version="1.1" id="Layer_1" xmlns="http://www.w3.org/2000/svg" xmlns:xlink="http://www.w3.org/1999/xlink" x="0px" y="0px"
	 viewBox="0 0 640 1136" enable-background="new 0 0 640 1136" xml:space="preserve">
<path fill="#333333" d="M45.4,664.7h550.5c0.3,0,0.5,0,0.8,0.1H640v-84.6c0-57-46.3-103.3-103.3-103.3h-3.1v-0.3
	c0-3.1-2.4-5.5-5.5-5.5h-94c-3.1,0-5.5,2.4-5.5,5.5v0.4H103.3C46.3,477,0,523.2,0,580.2v84.6h44.5C44.9,664.8,45.2,664.7,45.4,664.7
	z"/>
<ellipse fill="#4D4D4D" cx="320.1" cy="543.9" rx="11.8" ry="11.8"/>
<path fill="none" d="M45.4,664.7c-0.3,0-0.5,0-0.8,0.1h552.2c-0.3,0-0.5-0.1-0.8-0.1H45.4z"/>
<path fill="#4D4D4D" d="M277.4,608.1h89.1c7.4,0,13.3-5.9,13.3-13.3s-5.9-13.3-13.3-13.3h-89.1c-7.4,0-13.3,5.9-13.3,13.3
	C264.1,602,270,608.1,277.4,608.1z"/>
</svg>
