<?xml version="1.0" encoding="utf-8"?>
<!-- Generator: Adobe Illustrator 18.0.0, SVG Export Plug-In . SVG Version: 6.00 Build 0)  -->
<!DOCTYPE svg PUBLIC "-//W3C//DTD SVG 1.1//EN" "http://www.w3.org/Graphics/SVG/1.1/DTD/svg11.dtd">
<svg version="1.1" id="Layer_1" xmlns="http://www.w3.org/2000/svg" xmlns:xlink="http://www.w3.org/1999/xlink" x="0px" y="0px"
	 viewBox="0 0 476 144" enable-background="new 0 0 476 144" xml:space="preserve">
<ellipse fill="#4D4D4D" cx="238.1" cy="54.1" rx="8.8" ry="8.8"/>
<path fill="none" d="M33.8,143.9c-0.2,0-0.4,0-0.6,0.1h410.7c-0.2,0-0.4-0.1-0.6-0.1H33.8z"/>
<path fill="#333333" d="M33.8,143.9h409.4c0.2,0,0.4,0,0.6,0.1H476V81.1c0-42.4-34.4-76.8-76.8-76.8h-2.3V4.1c0-2.3-1.8-4.1-4.1-4.1
	h-69.9c-2.3,0-4.1,1.8-4.1,4.1v0.3H76.8C34.4,4.3,0,38.7,0,81.1L0,144h33.1C33.4,144,33.6,143.9,33.8,143.9z M206.3,82h66.3
	c5.5,0,9.9,4.4,9.9,9.9c0,5.5-4.4,9.9-9.9,9.9h-66.3c-5.5,0-9.9-4.4-9.9-9.9C196.4,86.4,200.8,82,206.3,82z"/>
<path fill="#4D4D4D" d="M206.3,101.8h66.3c5.5,0,9.9-4.4,9.9-9.9c0-5.5-4.4-9.9-9.9-9.9h-66.3c-5.5,0-9.9,4.4-9.9,9.9
	C196.4,97.3,200.8,101.8,206.3,101.8z"/>
</svg>
