<?xml version="1.0" encoding="utf-8"?>
<!-- Generator: Adobe Illustrator 18.0.0, SVG Export Plug-In . SVG Version: 6.00 Build 0)  -->
<!DOCTYPE svg PUBLIC "-//W3C//DTD SVG 1.1//EN" "http://www.w3.org/Graphics/SVG/1.1/DTD/svg11.dtd">
<svg version="1.1" id="Layer_1" xmlns="http://www.w3.org/2000/svg" xmlns:xlink="http://www.w3.org/1999/xlink" x="0px" y="0px"
	 viewBox="0 0 1152 1408" enable-background="new 0 0 1152 1408" xml:space="preserve">
<g transform="scale(1 -1) translate(0 -1280)">
	<path fill="#333333" d="M640,0c0,17.3-6.3,32.3-19,45s-27.7,19-45,19s-32.3-6.3-45-19s-19-27.7-19-45s6.3-32.3,19-45s27.7-19,45-19
		s32.3,6.3,45,19S640-17.3,640,0z M1024,160v960c0,8.7-3.2,16.2-9.5,22.5s-13.8,9.5-22.5,9.5H160c-8.7,0-16.2-3.2-22.5-9.5
		s-9.5-13.8-9.5-22.5V160c0-8.7,3.2-16.2,9.5-22.5s13.8-9.5,22.5-9.5h832c8.7,0,16.2,3.2,22.5,9.5S1024,151.3,1024,160z M1152,1120
		V32c0-44-15.7-81.7-47-113s-69-47-113-47H160c-44,0-81.7,15.7-113,47S0-12,0,32v1088c0,44,15.7,81.7,47,113s69,47,113,47h832
		c44,0,81.7-15.7,113-47S1152,1164,1152,1120z"/>
</g>
</svg>
